<mxfile host="app.diagrams.net" modified="2024-04-25T05:00:37.597Z" agent="Mozilla/5.0 (Windows NT 10.0; Win64; x64) AppleWebKit/537.36 (KHTML, like Gecko) Chrome/124.0.0.0 Safari/537.36 Edg/124.0.0.0" etag="M3hAd4lt97p8QHtxRTg7" version="24.3.0" type="device">
  <diagram name="第 1 页" id="_F_EA3CQ9tc-Kr3IUiWy">
    <mxGraphModel dx="3605" dy="747" grid="0" gridSize="10" guides="1" tooltips="1" connect="1" arrows="1" fold="1" page="1" pageScale="1" pageWidth="2339" pageHeight="3300" math="0" shadow="0">
      <root>
        <mxCell id="0" />
        <mxCell id="1" parent="0" />
        <mxCell id="A2y09itvP1W3iUXNutHY-2" style="edgeStyle=orthogonalEdgeStyle;rounded=0;orthogonalLoop=1;jettySize=auto;html=1;exitX=0.5;exitY=1;exitDx=0;exitDy=0;" parent="1" source="LSz9Bcbw1FkXyBMdWZnz-1" target="A2y09itvP1W3iUXNutHY-1" edge="1">
          <mxGeometry relative="1" as="geometry" />
        </mxCell>
        <mxCell id="LSz9Bcbw1FkXyBMdWZnz-1" value="&lt;font style=&quot;font-size: 21px;&quot;&gt;weight layer&lt;/font&gt;" style="rounded=1;whiteSpace=wrap;html=1;align=center;fillColor=#ffe6cc;strokeColor=#d79b00;" parent="1" vertex="1">
          <mxGeometry x="-490" y="130" width="200" height="50" as="geometry" />
        </mxCell>
        <mxCell id="A2y09itvP1W3iUXNutHY-3" style="edgeStyle=orthogonalEdgeStyle;rounded=0;orthogonalLoop=1;jettySize=auto;html=1;exitX=0.5;exitY=1;exitDx=0;exitDy=0;" parent="1" source="A2y09itvP1W3iUXNutHY-1" edge="1">
          <mxGeometry relative="1" as="geometry">
            <mxPoint x="-390" y="320" as="targetPoint" />
          </mxGeometry>
        </mxCell>
        <mxCell id="A2y09itvP1W3iUXNutHY-1" value="&lt;font style=&quot;font-size: 21px;&quot;&gt;weight layer&lt;/font&gt;" style="rounded=1;whiteSpace=wrap;html=1;align=center;fillColor=#d5e8d4;strokeColor=#82b366;" parent="1" vertex="1">
          <mxGeometry x="-490" y="230" width="200" height="50" as="geometry" />
        </mxCell>
        <mxCell id="A2y09itvP1W3iUXNutHY-4" value="" style="endArrow=classic;html=1;rounded=0;entryX=0.5;entryY=0;entryDx=0;entryDy=0;" parent="1" target="LSz9Bcbw1FkXyBMdWZnz-1" edge="1">
          <mxGeometry width="50" height="50" relative="1" as="geometry">
            <mxPoint x="-390" y="70" as="sourcePoint" />
            <mxPoint x="-360" y="30" as="targetPoint" />
            <Array as="points">
              <mxPoint x="-390" y="100" />
            </Array>
          </mxGeometry>
        </mxCell>
        <mxCell id="A2y09itvP1W3iUXNutHY-5" value="&lt;font style=&quot;font-size: 21px;&quot;&gt;ReLU&lt;/font&gt;" style="text;html=1;align=center;verticalAlign=middle;resizable=0;points=[];autosize=1;strokeColor=none;fillColor=none;" parent="1" vertex="1">
          <mxGeometry x="-386" y="182" width="72" height="37" as="geometry" />
        </mxCell>
        <mxCell id="A2y09itvP1W3iUXNutHY-7" style="edgeStyle=orthogonalEdgeStyle;rounded=0;orthogonalLoop=1;jettySize=auto;html=1;exitX=0.5;exitY=1;exitDx=0;exitDy=0;" parent="1" source="A2y09itvP1W3iUXNutHY-6" edge="1">
          <mxGeometry relative="1" as="geometry">
            <mxPoint x="-390" y="380" as="targetPoint" />
          </mxGeometry>
        </mxCell>
        <mxCell id="A2y09itvP1W3iUXNutHY-6" value="&lt;font style=&quot;font-size: 14px;&quot;&gt;➕&lt;/font&gt;" style="ellipse;whiteSpace=wrap;html=1;aspect=fixed;fillColor=#f5f5f5;fontColor=#333333;strokeColor=#666666;" parent="1" vertex="1">
          <mxGeometry x="-405" y="320" width="30" height="30" as="geometry" />
        </mxCell>
        <mxCell id="A2y09itvP1W3iUXNutHY-8" value="&lt;span style=&quot;font-size: 21px;&quot;&gt;ReLU&lt;/span&gt;" style="text;html=1;align=center;verticalAlign=middle;resizable=0;points=[];autosize=1;strokeColor=none;fillColor=none;" parent="1" vertex="1">
          <mxGeometry x="-386" y="342" width="72" height="37" as="geometry" />
        </mxCell>
        <mxCell id="A2y09itvP1W3iUXNutHY-16" value="" style="endArrow=classic;html=1;rounded=0;curved=1;edgeStyle=orthogonalEdgeStyle;entryX=1;entryY=0.5;entryDx=0;entryDy=0;" parent="1" target="A2y09itvP1W3iUXNutHY-6" edge="1">
          <mxGeometry width="50" height="50" relative="1" as="geometry">
            <mxPoint x="-390" y="100" as="sourcePoint" />
            <mxPoint x="-80" y="280" as="targetPoint" />
            <Array as="points">
              <mxPoint x="-220" y="100" />
              <mxPoint x="-220" y="335" />
            </Array>
          </mxGeometry>
        </mxCell>
        <mxCell id="A2y09itvP1W3iUXNutHY-17" value="&lt;font face=&quot;Times New Roman&quot; style=&quot;font-size: 21px;&quot;&gt;X&lt;/font&gt;&lt;div style=&quot;font-size: 21px;&quot;&gt;&lt;font style=&quot;font-size: 21px;&quot;&gt;identity&lt;/font&gt;&lt;/div&gt;" style="text;html=1;align=center;verticalAlign=middle;resizable=0;points=[];autosize=1;strokeColor=none;fillColor=none;" parent="1" vertex="1">
          <mxGeometry x="-225" y="182" width="90" height="60" as="geometry" />
        </mxCell>
        <mxCell id="A2y09itvP1W3iUXNutHY-18" value="&lt;font style=&quot;font-size: 21px;&quot;&gt;F(x)&lt;/font&gt;" style="text;html=1;align=center;verticalAlign=middle;resizable=0;points=[];autosize=1;strokeColor=none;fillColor=none;" parent="1" vertex="1">
          <mxGeometry x="-480" y="188" width="60" height="40" as="geometry" />
        </mxCell>
        <mxCell id="A2y09itvP1W3iUXNutHY-19" value="&lt;font style=&quot;font-size: 21px;&quot;&gt;F(x)+x&lt;/font&gt;" style="text;html=1;align=center;verticalAlign=middle;resizable=0;points=[];autosize=1;strokeColor=none;fillColor=none;" parent="1" vertex="1">
          <mxGeometry x="-490" y="315" width="80" height="40" as="geometry" />
        </mxCell>
        <mxCell id="A2y09itvP1W3iUXNutHY-20" value="&lt;font style=&quot;font-size: 21px;&quot;&gt;Filter Concat&lt;/font&gt;" style="rounded=1;whiteSpace=wrap;html=1;fillColor=#f8cecc;strokeColor=#b85450;" parent="1" vertex="1">
          <mxGeometry x="-530" y="535" width="240" height="50" as="geometry" />
        </mxCell>
        <mxCell id="A2y09itvP1W3iUXNutHY-43" style="rounded=0;orthogonalLoop=1;jettySize=auto;html=1;exitX=0.5;exitY=0;exitDx=0;exitDy=0;entryX=0.694;entryY=1.028;entryDx=0;entryDy=0;edgeStyle=orthogonalEdgeStyle;entryPerimeter=0;" parent="1" source="A2y09itvP1W3iUXNutHY-21" target="A2y09itvP1W3iUXNutHY-20" edge="1">
          <mxGeometry relative="1" as="geometry">
            <Array as="points" />
          </mxGeometry>
        </mxCell>
        <mxCell id="A2y09itvP1W3iUXNutHY-21" value="&lt;font style=&quot;font-size: 21px;&quot;&gt;3x3&lt;/font&gt;" style="rounded=1;whiteSpace=wrap;html=1;fillColor=#dae8fc;strokeColor=#6c8ebf;" parent="1" vertex="1">
          <mxGeometry x="-407" y="630" width="87" height="50" as="geometry" />
        </mxCell>
        <mxCell id="A2y09itvP1W3iUXNutHY-44" style="edgeStyle=orthogonalEdgeStyle;curved=1;rounded=0;orthogonalLoop=1;jettySize=auto;html=1;exitX=0.5;exitY=0;exitDx=0;exitDy=0;entryX=0.5;entryY=1;entryDx=0;entryDy=0;fillColor=#dae8fc;strokeColor=#6c8ebf;" parent="1" source="A2y09itvP1W3iUXNutHY-22" target="A2y09itvP1W3iUXNutHY-21" edge="1">
          <mxGeometry relative="1" as="geometry" />
        </mxCell>
        <mxCell id="A2y09itvP1W3iUXNutHY-22" value="&lt;font style=&quot;font-size: 21px;&quot;&gt;3x3&lt;/font&gt;" style="rounded=1;whiteSpace=wrap;html=1;fillColor=#dae8fc;strokeColor=#6c8ebf;" parent="1" vertex="1">
          <mxGeometry x="-407" y="720" width="87" height="50" as="geometry" />
        </mxCell>
        <mxCell id="A2y09itvP1W3iUXNutHY-41" style="rounded=0;orthogonalLoop=1;jettySize=auto;html=1;exitX=0.5;exitY=0;exitDx=0;exitDy=0;edgeStyle=orthogonalEdgeStyle;entryX=0.183;entryY=0.996;entryDx=0;entryDy=0;entryPerimeter=0;" parent="1" source="A2y09itvP1W3iUXNutHY-23" edge="1" target="A2y09itvP1W3iUXNutHY-20">
          <mxGeometry relative="1" as="geometry">
            <mxPoint x="-410" y="580" as="targetPoint" />
            <Array as="points">
              <mxPoint x="-486" y="653" />
              <mxPoint x="-486" y="653" />
            </Array>
          </mxGeometry>
        </mxCell>
        <mxCell id="A2y09itvP1W3iUXNutHY-23" value="&lt;font style=&quot;font-size: 21px;&quot;&gt;5x5&lt;/font&gt;" style="rounded=1;whiteSpace=wrap;html=1;fillColor=#dae8fc;strokeColor=#6c8ebf;" parent="1" vertex="1">
          <mxGeometry x="-530" y="720" width="87" height="50" as="geometry" />
        </mxCell>
        <mxCell id="A2y09itvP1W3iUXNutHY-37" style="edgeStyle=orthogonalEdgeStyle;curved=1;rounded=0;orthogonalLoop=1;jettySize=auto;html=1;exitX=0.5;exitY=0;exitDx=0;exitDy=0;entryX=0.5;entryY=1;entryDx=0;entryDy=0;fillColor=#dae8fc;strokeColor=#6c8ebf;" parent="1" source="A2y09itvP1W3iUXNutHY-24" target="A2y09itvP1W3iUXNutHY-23" edge="1">
          <mxGeometry relative="1" as="geometry" />
        </mxCell>
        <mxCell id="A2y09itvP1W3iUXNutHY-24" value="&lt;font style=&quot;font-size: 21px;&quot;&gt;1x1&lt;/font&gt;" style="rounded=1;whiteSpace=wrap;html=1;fillColor=#dae8fc;strokeColor=#6c8ebf;" parent="1" vertex="1">
          <mxGeometry x="-530" y="810" width="87" height="50" as="geometry" />
        </mxCell>
        <mxCell id="A2y09itvP1W3iUXNutHY-38" style="edgeStyle=orthogonalEdgeStyle;curved=1;rounded=0;orthogonalLoop=1;jettySize=auto;html=1;exitX=0.5;exitY=0;exitDx=0;exitDy=0;entryX=0.5;entryY=1;entryDx=0;entryDy=0;fillColor=#dae8fc;strokeColor=#6c8ebf;" parent="1" source="A2y09itvP1W3iUXNutHY-26" target="A2y09itvP1W3iUXNutHY-22" edge="1">
          <mxGeometry relative="1" as="geometry" />
        </mxCell>
        <mxCell id="A2y09itvP1W3iUXNutHY-26" value="&lt;font style=&quot;font-size: 21px;&quot;&gt;1x1&lt;/font&gt;" style="rounded=1;whiteSpace=wrap;html=1;fillColor=#dae8fc;strokeColor=#6c8ebf;" parent="1" vertex="1">
          <mxGeometry x="-407" y="810" width="87" height="50" as="geometry" />
        </mxCell>
        <mxCell id="A2y09itvP1W3iUXNutHY-39" style="edgeStyle=orthogonalEdgeStyle;curved=1;rounded=0;orthogonalLoop=1;jettySize=auto;html=1;exitX=0.5;exitY=0;exitDx=0;exitDy=0;entryX=0.5;entryY=1;entryDx=0;entryDy=0;fillColor=#dae8fc;strokeColor=#6c8ebf;" parent="1" source="A2y09itvP1W3iUXNutHY-27" target="A2y09itvP1W3iUXNutHY-28" edge="1">
          <mxGeometry relative="1" as="geometry" />
        </mxCell>
        <mxCell id="A2y09itvP1W3iUXNutHY-27" value="&lt;font style=&quot;font-size: 21px;&quot;&gt;1x1&lt;/font&gt;" style="rounded=1;whiteSpace=wrap;html=1;fillColor=#dae8fc;strokeColor=#6c8ebf;" parent="1" vertex="1">
          <mxGeometry x="-280" y="810" width="87" height="50" as="geometry" />
        </mxCell>
        <mxCell id="A2y09itvP1W3iUXNutHY-40" style="rounded=0;orthogonalLoop=1;jettySize=auto;html=1;exitX=0.5;exitY=0;exitDx=0;exitDy=0;edgeStyle=orthogonalEdgeStyle;entryX=1;entryY=0.75;entryDx=0;entryDy=0;" parent="1" source="A2y09itvP1W3iUXNutHY-28" target="A2y09itvP1W3iUXNutHY-20" edge="1">
          <mxGeometry relative="1" as="geometry">
            <mxPoint x="-283" y="582" as="targetPoint" />
          </mxGeometry>
        </mxCell>
        <mxCell id="A2y09itvP1W3iUXNutHY-28" value="&lt;font style=&quot;font-size: 21px;&quot;&gt;1x1&lt;/font&gt;" style="rounded=1;whiteSpace=wrap;html=1;fillColor=#dae8fc;strokeColor=#6c8ebf;" parent="1" vertex="1">
          <mxGeometry x="-280" y="720" width="87" height="50" as="geometry" />
        </mxCell>
        <mxCell id="A2y09itvP1W3iUXNutHY-42" style="rounded=0;orthogonalLoop=1;jettySize=auto;html=1;exitX=0.5;exitY=0;exitDx=0;exitDy=0;entryX=0;entryY=0.75;entryDx=0;entryDy=0;edgeStyle=orthogonalEdgeStyle;" parent="1" source="A2y09itvP1W3iUXNutHY-29" target="A2y09itvP1W3iUXNutHY-20" edge="1">
          <mxGeometry relative="1" as="geometry" />
        </mxCell>
        <mxCell id="A2y09itvP1W3iUXNutHY-29" value="&lt;font style=&quot;font-size: 21px;&quot;&gt;1x1&lt;/font&gt;" style="rounded=1;whiteSpace=wrap;html=1;fillColor=#dae8fc;strokeColor=#6c8ebf;" parent="1" vertex="1">
          <mxGeometry x="-650" y="810" width="87" height="50" as="geometry" />
        </mxCell>
        <mxCell id="A2y09itvP1W3iUXNutHY-33" style="rounded=0;orthogonalLoop=1;jettySize=auto;html=1;entryX=0.5;entryY=1;entryDx=0;entryDy=0;exitX=0.696;exitY=-0.009;exitDx=0;exitDy=0;exitPerimeter=0;" parent="1" target="A2y09itvP1W3iUXNutHY-26" edge="1" source="A2y09itvP1W3iUXNutHY-30">
          <mxGeometry relative="1" as="geometry">
            <mxPoint x="-410" y="920" as="sourcePoint" />
          </mxGeometry>
        </mxCell>
        <mxCell id="A2y09itvP1W3iUXNutHY-34" style="rounded=0;orthogonalLoop=1;jettySize=auto;html=1;exitX=0.985;exitY=0.03;exitDx=0;exitDy=0;entryX=0.5;entryY=1;entryDx=0;entryDy=0;exitPerimeter=0;edgeStyle=orthogonalEdgeStyle;" parent="1" source="A2y09itvP1W3iUXNutHY-30" target="A2y09itvP1W3iUXNutHY-27" edge="1">
          <mxGeometry relative="1" as="geometry" />
        </mxCell>
        <mxCell id="A2y09itvP1W3iUXNutHY-35" style="rounded=0;orthogonalLoop=1;jettySize=auto;html=1;exitX=0.184;exitY=0.02;exitDx=0;exitDy=0;entryX=0.5;entryY=1;entryDx=0;entryDy=0;exitPerimeter=0;" parent="1" source="A2y09itvP1W3iUXNutHY-30" target="A2y09itvP1W3iUXNutHY-24" edge="1">
          <mxGeometry relative="1" as="geometry" />
        </mxCell>
        <mxCell id="A2y09itvP1W3iUXNutHY-36" style="rounded=0;orthogonalLoop=1;jettySize=auto;html=1;exitX=0.049;exitY=0.03;exitDx=0;exitDy=0;entryX=0.5;entryY=1;entryDx=0;entryDy=0;edgeStyle=orthogonalEdgeStyle;exitPerimeter=0;" parent="1" source="A2y09itvP1W3iUXNutHY-30" target="A2y09itvP1W3iUXNutHY-29" edge="1">
          <mxGeometry relative="1" as="geometry" />
        </mxCell>
        <mxCell id="A2y09itvP1W3iUXNutHY-30" value="&lt;font style=&quot;font-size: 21px;&quot;&gt;Base&lt;/font&gt;" style="rounded=1;whiteSpace=wrap;html=1;fillColor=#d5e8d4;strokeColor=#82b366;" parent="1" vertex="1">
          <mxGeometry x="-530" y="920" width="240" height="50" as="geometry" />
        </mxCell>
        <mxCell id="A2y09itvP1W3iUXNutHY-55" style="edgeStyle=orthogonalEdgeStyle;curved=1;rounded=0;orthogonalLoop=1;jettySize=auto;html=1;exitX=0.5;exitY=0;exitDx=0;exitDy=0;" parent="1" source="A2y09itvP1W3iUXNutHY-46" edge="1">
          <mxGeometry relative="1" as="geometry">
            <mxPoint x="-450" y="1260" as="targetPoint" />
          </mxGeometry>
        </mxCell>
        <mxCell id="A2y09itvP1W3iUXNutHY-46" value="&lt;font style=&quot;font-size: 21px;&quot;&gt;Dense&lt;/font&gt;" style="rounded=1;whiteSpace=wrap;html=1;fillColor=#dae8fc;strokeColor=#6c8ebf;" parent="1" vertex="1">
          <mxGeometry x="-540" y="1320" width="180" height="60" as="geometry" />
        </mxCell>
        <mxCell id="A2y09itvP1W3iUXNutHY-54" style="edgeStyle=orthogonalEdgeStyle;curved=1;rounded=0;orthogonalLoop=1;jettySize=auto;html=1;exitX=0.5;exitY=0;exitDx=0;exitDy=0;entryX=0.5;entryY=1;entryDx=0;entryDy=0;" parent="1" source="A2y09itvP1W3iUXNutHY-47" target="A2y09itvP1W3iUXNutHY-46" edge="1">
          <mxGeometry relative="1" as="geometry" />
        </mxCell>
        <mxCell id="A2y09itvP1W3iUXNutHY-47" value="&lt;font style=&quot;font-size: 21px;&quot;&gt;Dense&lt;/font&gt;" style="rounded=1;whiteSpace=wrap;html=1;fillColor=#dae8fc;strokeColor=#6c8ebf;" parent="1" vertex="1">
          <mxGeometry x="-540" y="1450" width="180" height="60" as="geometry" />
        </mxCell>
        <mxCell id="A2y09itvP1W3iUXNutHY-53" style="edgeStyle=orthogonalEdgeStyle;curved=1;rounded=0;orthogonalLoop=1;jettySize=auto;html=1;exitX=0.5;exitY=0;exitDx=0;exitDy=0;entryX=0.5;entryY=1;entryDx=0;entryDy=0;" parent="1" source="A2y09itvP1W3iUXNutHY-48" target="A2y09itvP1W3iUXNutHY-47" edge="1">
          <mxGeometry relative="1" as="geometry" />
        </mxCell>
        <mxCell id="A2y09itvP1W3iUXNutHY-48" value="&lt;font style=&quot;font-size: 21px;&quot;&gt;1x1xC&lt;/font&gt;" style="rounded=1;whiteSpace=wrap;html=1;fillColor=#dae8fc;strokeColor=#6c8ebf;" parent="1" vertex="1">
          <mxGeometry x="-540" y="1580" width="180" height="60" as="geometry" />
        </mxCell>
        <mxCell id="A2y09itvP1W3iUXNutHY-52" style="rounded=0;orthogonalLoop=1;jettySize=auto;html=1;exitX=0.5;exitY=0;exitDx=0;exitDy=0;" parent="1" source="A2y09itvP1W3iUXNutHY-49" target="A2y09itvP1W3iUXNutHY-48" edge="1">
          <mxGeometry relative="1" as="geometry">
            <mxPoint x="-445" y="1650" as="targetPoint" />
          </mxGeometry>
        </mxCell>
        <mxCell id="A2y09itvP1W3iUXNutHY-49" value="&lt;font style=&quot;font-size: 21px;&quot;&gt;GlobalAveragaPooling&lt;/font&gt;" style="rounded=1;whiteSpace=wrap;html=1;fillColor=#dae8fc;strokeColor=#6c8ebf;" parent="1" vertex="1">
          <mxGeometry x="-565" y="1700" width="230" height="60" as="geometry" />
        </mxCell>
        <mxCell id="A2y09itvP1W3iUXNutHY-51" style="rounded=0;orthogonalLoop=1;jettySize=auto;html=1;exitX=0.5;exitY=0;exitDx=0;exitDy=0;" parent="1" source="A2y09itvP1W3iUXNutHY-50" edge="1">
          <mxGeometry relative="1" as="geometry">
            <mxPoint x="-450" y="1760" as="targetPoint" />
          </mxGeometry>
        </mxCell>
        <mxCell id="A2y09itvP1W3iUXNutHY-50" value="&lt;span style=&quot;font-size: 21px;&quot;&gt;Inputs&lt;/span&gt;" style="rounded=1;whiteSpace=wrap;html=1;fillColor=#d5e8d4;strokeColor=#82b366;" parent="1" vertex="1">
          <mxGeometry x="-540" y="1820" width="180" height="60" as="geometry" />
        </mxCell>
        <mxCell id="A2y09itvP1W3iUXNutHY-56" value="&lt;font style=&quot;font-size: 21px;&quot;&gt;sigmoid&lt;/font&gt;" style="text;html=1;align=center;verticalAlign=middle;resizable=0;points=[];autosize=1;strokeColor=none;fillColor=none;" parent="1" vertex="1">
          <mxGeometry x="-430" y="1270" width="100" height="40" as="geometry" />
        </mxCell>
        <mxCell id="A2y09itvP1W3iUXNutHY-57" value="&lt;font style=&quot;font-size: 21px;&quot;&gt;relu&lt;/font&gt;" style="text;html=1;align=center;verticalAlign=middle;resizable=0;points=[];autosize=1;strokeColor=none;fillColor=none;" parent="1" vertex="1">
          <mxGeometry x="-430" y="1400" width="60" height="40" as="geometry" />
        </mxCell>
        <mxCell id="A2y09itvP1W3iUXNutHY-58" value="&lt;font style=&quot;font-size: 21px;&quot;&gt;SE block&lt;/font&gt;" style="text;html=1;align=center;verticalAlign=middle;resizable=0;points=[];autosize=1;strokeColor=none;fillColor=none;" parent="1" vertex="1">
          <mxGeometry x="-505" y="1190" width="110" height="40" as="geometry" />
        </mxCell>
        <mxCell id="A2y09itvP1W3iUXNutHY-59" value="&lt;font style=&quot;font-size: 21px;&quot;&gt;SE block&lt;/font&gt;" style="rounded=1;whiteSpace=wrap;html=1;fillColor=#f8cecc;strokeColor=#b85450;fontStyle=1" parent="1" vertex="1">
          <mxGeometry x="-736.5" y="2043" width="180" height="60" as="geometry" />
        </mxCell>
        <mxCell id="A2y09itvP1W3iUXNutHY-60" value="&lt;font style=&quot;font-size: 21px;&quot;&gt;conv(1,1)&lt;/font&gt;" style="rounded=1;whiteSpace=wrap;html=1;fillColor=#dae8fc;strokeColor=#6c8ebf;fontStyle=1" parent="1" vertex="1">
          <mxGeometry x="-1006.5" y="2313" width="170" height="60" as="geometry" />
        </mxCell>
        <mxCell id="A2y09itvP1W3iUXNutHY-61" value="&lt;font style=&quot;font-size: 21px;&quot;&gt;conv(1,1)&lt;/font&gt;" style="rounded=1;whiteSpace=wrap;html=1;fillColor=#dae8fc;strokeColor=#6c8ebf;fontStyle=1" parent="1" vertex="1">
          <mxGeometry x="-806.5" y="2313" width="170" height="60" as="geometry" />
        </mxCell>
        <mxCell id="A2y09itvP1W3iUXNutHY-62" value="&lt;font style=&quot;font-size: 21px;&quot;&gt;conv(3,3)&lt;/font&gt;" style="rounded=1;whiteSpace=wrap;html=1;fillColor=#dae8fc;strokeColor=#6c8ebf;fontStyle=1" parent="1" vertex="1">
          <mxGeometry x="-601.5" y="2183" width="170" height="60" as="geometry" />
        </mxCell>
        <mxCell id="A2y09itvP1W3iUXNutHY-76" style="edgeStyle=orthogonalEdgeStyle;curved=1;rounded=0;orthogonalLoop=1;jettySize=auto;html=1;exitX=0.5;exitY=0;exitDx=0;exitDy=0;entryX=0.5;entryY=1;entryDx=0;entryDy=0;fontStyle=1" parent="1" source="A2y09itvP1W3iUXNutHY-63" target="A2y09itvP1W3iUXNutHY-62" edge="1">
          <mxGeometry relative="1" as="geometry" />
        </mxCell>
        <mxCell id="A2y09itvP1W3iUXNutHY-63" value="&lt;font style=&quot;font-size: 21px;&quot;&gt;conv(3,3)&lt;/font&gt;" style="rounded=1;whiteSpace=wrap;html=1;fillColor=#dae8fc;strokeColor=#6c8ebf;fontStyle=1" parent="1" vertex="1">
          <mxGeometry x="-601.5" y="2293" width="170" height="60" as="geometry" />
        </mxCell>
        <mxCell id="A2y09itvP1W3iUXNutHY-75" style="edgeStyle=orthogonalEdgeStyle;curved=1;rounded=0;orthogonalLoop=1;jettySize=auto;html=1;exitX=0.5;exitY=0;exitDx=0;exitDy=0;entryX=0.5;entryY=1;entryDx=0;entryDy=0;fontStyle=1" parent="1" source="A2y09itvP1W3iUXNutHY-65" target="A2y09itvP1W3iUXNutHY-63" edge="1">
          <mxGeometry relative="1" as="geometry" />
        </mxCell>
        <mxCell id="A2y09itvP1W3iUXNutHY-65" value="&lt;font style=&quot;font-size: 21px;&quot;&gt;conv(1,1)&lt;/font&gt;" style="rounded=1;whiteSpace=wrap;html=1;fillColor=#dae8fc;strokeColor=#6c8ebf;fontStyle=1" parent="1" vertex="1">
          <mxGeometry x="-601.5" y="2393" width="170" height="60" as="geometry" />
        </mxCell>
        <mxCell id="A2y09itvP1W3iUXNutHY-66" value="&lt;font style=&quot;font-size: 21px;&quot;&gt;conv(1,1)&lt;/font&gt;" style="rounded=1;whiteSpace=wrap;html=1;fillColor=#dae8fc;strokeColor=#6c8ebf;fontStyle=1" parent="1" vertex="1">
          <mxGeometry x="-376.5" y="2243" width="170" height="60" as="geometry" />
        </mxCell>
        <mxCell id="A2y09itvP1W3iUXNutHY-74" style="edgeStyle=orthogonalEdgeStyle;curved=1;rounded=0;orthogonalLoop=1;jettySize=auto;html=1;exitX=0.5;exitY=0;exitDx=0;exitDy=0;entryX=0.5;entryY=1;entryDx=0;entryDy=0;fontStyle=1" parent="1" source="A2y09itvP1W3iUXNutHY-67" target="A2y09itvP1W3iUXNutHY-66" edge="1">
          <mxGeometry relative="1" as="geometry" />
        </mxCell>
        <mxCell id="A2y09itvP1W3iUXNutHY-67" value="&lt;font style=&quot;font-size: 21px;&quot;&gt;MaxPooling(3,3)&lt;/font&gt;" style="rounded=1;whiteSpace=wrap;html=1;fillColor=#dae8fc;strokeColor=#6c8ebf;fontStyle=1" parent="1" vertex="1">
          <mxGeometry x="-376.5" y="2353" width="170" height="60" as="geometry" />
        </mxCell>
        <mxCell id="A2y09itvP1W3iUXNutHY-69" style="edgeStyle=orthogonalEdgeStyle;rounded=0;orthogonalLoop=1;jettySize=auto;html=1;exitX=0.5;exitY=0;exitDx=0;exitDy=0;entryX=0.5;entryY=1;entryDx=0;entryDy=0;fontStyle=1" parent="1" source="A2y09itvP1W3iUXNutHY-68" target="A2y09itvP1W3iUXNutHY-60" edge="1">
          <mxGeometry relative="1" as="geometry">
            <Array as="points">
              <mxPoint x="-646.5" y="2473" />
              <mxPoint x="-921.5" y="2473" />
            </Array>
          </mxGeometry>
        </mxCell>
        <mxCell id="A2y09itvP1W3iUXNutHY-68" value="&lt;font style=&quot;font-size: 21px;&quot;&gt;Inputs&lt;/font&gt;" style="rounded=1;whiteSpace=wrap;html=1;fillColor=#d5e8d4;strokeColor=#82b366;fontStyle=1" parent="1" vertex="1">
          <mxGeometry x="-736.5" y="2533" width="180" height="60" as="geometry" />
        </mxCell>
        <mxCell id="A2y09itvP1W3iUXNutHY-70" value="" style="endArrow=classic;html=1;rounded=0;curved=1;entryX=0.5;entryY=1;entryDx=0;entryDy=0;fontStyle=1" parent="1" target="A2y09itvP1W3iUXNutHY-61" edge="1">
          <mxGeometry width="50" height="50" relative="1" as="geometry">
            <mxPoint x="-721.5" y="2473" as="sourcePoint" />
            <mxPoint x="-706.5" y="2403" as="targetPoint" />
          </mxGeometry>
        </mxCell>
        <mxCell id="A2y09itvP1W3iUXNutHY-72" value="" style="edgeStyle=segmentEdgeStyle;endArrow=classic;html=1;curved=0;rounded=0;endSize=8;startSize=8;entryX=0.5;entryY=1;entryDx=0;entryDy=0;fontStyle=1" parent="1" target="A2y09itvP1W3iUXNutHY-65" edge="1">
          <mxGeometry width="50" height="50" relative="1" as="geometry">
            <mxPoint x="-646.5" y="2513" as="sourcePoint" />
            <mxPoint x="-599.5" y="2463" as="targetPoint" />
            <Array as="points">
              <mxPoint x="-646.5" y="2473" />
              <mxPoint x="-516.5" y="2473" />
            </Array>
          </mxGeometry>
        </mxCell>
        <mxCell id="A2y09itvP1W3iUXNutHY-73" value="" style="edgeStyle=segmentEdgeStyle;endArrow=classic;html=1;curved=0;rounded=0;endSize=8;startSize=8;entryX=0.5;entryY=1;entryDx=0;entryDy=0;fontStyle=1" parent="1" edge="1">
          <mxGeometry width="50" height="50" relative="1" as="geometry">
            <mxPoint x="-653.5" y="2473" as="sourcePoint" />
            <mxPoint x="-296.5" y="2413" as="targetPoint" />
          </mxGeometry>
        </mxCell>
        <mxCell id="A2y09itvP1W3iUXNutHY-78" value="" style="edgeStyle=segmentEdgeStyle;endArrow=classic;html=1;curved=0;rounded=0;endSize=8;startSize=8;exitX=0.5;exitY=0;exitDx=0;exitDy=0;entryX=0.5;entryY=1;entryDx=0;entryDy=0;fontStyle=1" parent="1" source="A2y09itvP1W3iUXNutHY-60" target="A2y09itvP1W3iUXNutHY-59" edge="1">
          <mxGeometry width="50" height="50" relative="1" as="geometry">
            <mxPoint x="-916.5" y="2283" as="sourcePoint" />
            <mxPoint x="-676.5" y="2183" as="targetPoint" />
            <Array as="points">
              <mxPoint x="-921.5" y="2153" />
              <mxPoint x="-646.5" y="2153" />
            </Array>
          </mxGeometry>
        </mxCell>
        <mxCell id="A2y09itvP1W3iUXNutHY-82" value="" style="endArrow=none;html=1;rounded=0;curved=1;fontStyle=1" parent="1" edge="1">
          <mxGeometry width="50" height="50" relative="1" as="geometry">
            <mxPoint x="-722" y="2313" as="sourcePoint" />
            <mxPoint x="-721.5" y="2153" as="targetPoint" />
          </mxGeometry>
        </mxCell>
        <mxCell id="A2y09itvP1W3iUXNutHY-83" value="" style="endArrow=none;html=1;rounded=0;curved=1;fontStyle=1" parent="1" edge="1">
          <mxGeometry width="50" height="50" relative="1" as="geometry">
            <mxPoint x="-516.5" y="2183" as="sourcePoint" />
            <mxPoint x="-516.5" y="2153" as="targetPoint" />
          </mxGeometry>
        </mxCell>
        <mxCell id="A2y09itvP1W3iUXNutHY-84" value="" style="endArrow=none;html=1;rounded=0;curved=1;fontStyle=1" parent="1" edge="1">
          <mxGeometry width="50" height="50" relative="1" as="geometry">
            <mxPoint x="-656.5" y="2153" as="sourcePoint" />
            <mxPoint x="-286.5" y="2153" as="targetPoint" />
          </mxGeometry>
        </mxCell>
        <mxCell id="A2y09itvP1W3iUXNutHY-85" value="" style="endArrow=none;html=1;rounded=0;curved=1;fontStyle=1" parent="1" edge="1">
          <mxGeometry width="50" height="50" relative="1" as="geometry">
            <mxPoint x="-292" y="2243" as="sourcePoint" />
            <mxPoint x="-291.5" y="2153" as="targetPoint" />
          </mxGeometry>
        </mxCell>
        <mxCell id="A2y09itvP1W3iUXNutHY-86" value="&lt;font style=&quot;font-size: 21px;&quot;&gt;ReLU&lt;/font&gt;" style="text;html=1;align=center;verticalAlign=middle;resizable=0;points=[];autosize=1;strokeColor=none;fillColor=none;fontStyle=1" parent="1" vertex="1">
          <mxGeometry x="-291.5" y="2185" width="72" height="37" as="geometry" />
        </mxCell>
        <mxCell id="A2y09itvP1W3iUXNutHY-87" value="&lt;span style=&quot;font-size: 21px;&quot;&gt;ReLU&lt;/span&gt;" style="text;html=1;align=center;verticalAlign=middle;resizable=0;points=[];autosize=1;strokeColor=none;fillColor=none;fontStyle=1" parent="1" vertex="1">
          <mxGeometry x="-512.5" y="2150" width="72" height="37" as="geometry" />
        </mxCell>
        <mxCell id="A2y09itvP1W3iUXNutHY-88" value="&lt;span style=&quot;font-size: 21px;&quot;&gt;ReLU&lt;/span&gt;" style="text;html=1;align=center;verticalAlign=middle;resizable=0;points=[];autosize=1;strokeColor=none;fillColor=none;fontStyle=1" parent="1" vertex="1">
          <mxGeometry x="-512.5" y="2254.5" width="72" height="37" as="geometry" />
        </mxCell>
        <mxCell id="A2y09itvP1W3iUXNutHY-89" value="&lt;span style=&quot;font-size: 21px;&quot;&gt;ReLU&lt;/span&gt;" style="text;html=1;align=center;verticalAlign=middle;resizable=0;points=[];autosize=1;strokeColor=none;fillColor=none;fontStyle=1" parent="1" vertex="1">
          <mxGeometry x="-512.5" y="2353" width="72" height="37" as="geometry" />
        </mxCell>
        <mxCell id="A2y09itvP1W3iUXNutHY-90" value="&lt;span style=&quot;font-size: 21px;&quot;&gt;ReLU&lt;/span&gt;" style="text;html=1;align=center;verticalAlign=middle;resizable=0;points=[];autosize=1;strokeColor=none;fillColor=none;fontStyle=1" parent="1" vertex="1">
          <mxGeometry x="-792" y="2273" width="72" height="37" as="geometry" />
        </mxCell>
        <mxCell id="A2y09itvP1W3iUXNutHY-91" value="&lt;span style=&quot;font-size: 21px;&quot;&gt;ReLU&lt;/span&gt;" style="text;html=1;align=center;verticalAlign=middle;resizable=0;points=[];autosize=1;strokeColor=none;fillColor=none;fontStyle=1" parent="1" vertex="1">
          <mxGeometry x="-1000" y="2270" width="72" height="37" as="geometry" />
        </mxCell>
        <mxCell id="A2y09itvP1W3iUXNutHY-92" value="" style="shape=flexArrow;endArrow=classic;html=1;rounded=0;curved=1;endWidth=44;endSize=6.66;width=14;fillColor=#f5f5f5;strokeColor=#666666;fontSize=19;fontStyle=1" parent="1" edge="1">
          <mxGeometry width="50" height="50" relative="1" as="geometry">
            <mxPoint x="-1018" y="2882" as="sourcePoint" />
            <mxPoint x="-866" y="2882" as="targetPoint" />
          </mxGeometry>
        </mxCell>
        <mxCell id="A2y09itvP1W3iUXNutHY-93" value="&lt;font style=&quot;font-size: 19px;&quot;&gt;Training data&lt;/font&gt;" style="text;html=1;align=center;verticalAlign=middle;resizable=0;points=[];autosize=1;strokeColor=none;fillColor=none;fontSize=19;fontStyle=1" parent="1" vertex="1">
          <mxGeometry x="-1024" y="2822" width="128" height="35" as="geometry" />
        </mxCell>
        <mxCell id="A2y09itvP1W3iUXNutHY-94" value="&lt;font style=&quot;font-size: 19px;&quot;&gt;classifier&lt;/font&gt;" style="rounded=1;whiteSpace=wrap;html=1;fillColor=#ffe6cc;strokeColor=#d79b00;fontSize=19;fontStyle=1" parent="1" vertex="1">
          <mxGeometry x="-853" y="2842" width="140" height="70" as="geometry" />
        </mxCell>
        <mxCell id="A2y09itvP1W3iUXNutHY-95" value="" style="shape=flexArrow;endArrow=classic;html=1;rounded=0;curved=1;endWidth=44;endSize=6.66;width=14;fillColor=#f5f5f5;strokeColor=#666666;fontSize=19;fontStyle=1" parent="1" edge="1">
          <mxGeometry width="50" height="50" relative="1" as="geometry">
            <mxPoint x="-691" y="2881.5" as="sourcePoint" />
            <mxPoint x="-526" y="2882" as="targetPoint" />
          </mxGeometry>
        </mxCell>
        <mxCell id="A2y09itvP1W3iUXNutHY-96" value="&lt;font style=&quot;font-size: 19px;&quot;&gt;output value&lt;/font&gt;" style="text;html=1;align=center;verticalAlign=middle;resizable=0;points=[];autosize=1;strokeColor=none;fillColor=none;fontSize=19;fontStyle=1" parent="1" vertex="1">
          <mxGeometry x="-678" y="2822" width="122" height="35" as="geometry" />
        </mxCell>
        <mxCell id="A2y09itvP1W3iUXNutHY-98" value="&lt;font style=&quot;font-size: 19px;&quot;&gt;classifier&lt;/font&gt;" style="rounded=1;whiteSpace=wrap;html=1;fillColor=#ffe6cc;strokeColor=#d79b00;fontSize=19;fontStyle=1" parent="1" vertex="1">
          <mxGeometry x="-491" y="2842" width="140" height="70" as="geometry" />
        </mxCell>
        <mxCell id="A2y09itvP1W3iUXNutHY-99" value="" style="shape=flexArrow;endArrow=classic;html=1;rounded=0;curved=1;endWidth=44;endSize=6.66;width=14;fillColor=#f5f5f5;strokeColor=#666666;fontSize=19;fontStyle=1" parent="1" edge="1">
          <mxGeometry width="50" height="50" relative="1" as="geometry">
            <mxPoint x="-324" y="2875.7" as="sourcePoint" />
            <mxPoint x="-208" y="2878.29" as="targetPoint" />
          </mxGeometry>
        </mxCell>
        <mxCell id="A2y09itvP1W3iUXNutHY-100" value="&lt;font style=&quot;font-size: 19px;&quot;&gt;output data&lt;/font&gt;" style="text;html=1;align=center;verticalAlign=middle;resizable=0;points=[];autosize=1;strokeColor=none;fillColor=none;fontSize=19;fontStyle=1" parent="1" vertex="1">
          <mxGeometry x="-342" y="2822" width="113" height="35" as="geometry" />
        </mxCell>
        <mxCell id="A2y09itvP1W3iUXNutHY-101" value="&lt;font style=&quot;font-size: 15px;&quot;&gt;depyhwise_separable_resent_block,&lt;/font&gt;&lt;div style=&quot;font-size: 15px;&quot;&gt;&lt;font style=&quot;font-size: 15px;&quot;&gt;filters=64&lt;/font&gt;&lt;/div&gt;" style="rounded=1;whiteSpace=wrap;html=1;fillColor=#ffe6cc;strokeColor=#d79b00;fontSize=15;fontStyle=1" parent="1" vertex="1">
          <mxGeometry x="472" y="4809" width="280" height="50" as="geometry" />
        </mxCell>
        <mxCell id="A2y09itvP1W3iUXNutHY-102" value="&lt;font style=&quot;font-size: 15px;&quot;&gt;depyhwise_separable_resent_block,&lt;/font&gt;&lt;div style=&quot;font-size: 15px;&quot;&gt;&lt;font style=&quot;font-size: 15px;&quot;&gt;filters=32&lt;/font&gt;&lt;/div&gt;" style="rounded=1;whiteSpace=wrap;html=1;fillColor=#ffe6cc;strokeColor=#d79b00;fontSize=15;fontStyle=1" parent="1" vertex="1">
          <mxGeometry x="469" y="4899" width="280" height="50" as="geometry" />
        </mxCell>
        <mxCell id="A2y09itvP1W3iUXNutHY-103" value="&lt;span style=&quot;font-size: 15px;&quot;&gt;conv(5,5),&lt;/span&gt;&lt;div style=&quot;font-size: 15px;&quot;&gt;&lt;span style=&quot;font-size: 15px;&quot;&gt;filters=32&lt;/span&gt;&lt;/div&gt;" style="rounded=1;whiteSpace=wrap;html=1;fillColor=#dae8fc;strokeColor=#6c8ebf;fontSize=15;fontStyle=1" parent="1" vertex="1">
          <mxGeometry x="536.25" y="4989" width="151.5" height="50" as="geometry" />
        </mxCell>
        <mxCell id="A2y09itvP1W3iUXNutHY-105" value="&lt;span style=&quot;font-size: 15px;&quot;&gt;MaxPooling(3,3)&lt;/span&gt;" style="rounded=1;whiteSpace=wrap;html=1;fillColor=#dae8fc;strokeColor=#6c8ebf;fontSize=15;fontStyle=1" parent="1" vertex="1">
          <mxGeometry x="536.25" y="5079" width="151.5" height="50" as="geometry" />
        </mxCell>
        <mxCell id="A2y09itvP1W3iUXNutHY-106" value="&lt;span style=&quot;font-size: 15px;&quot;&gt;special_attention_block&lt;/span&gt;" style="rounded=1;whiteSpace=wrap;html=1;fillColor=#fff2cc;strokeColor=#d6b656;fontSize=15;fontStyle=1" parent="1" vertex="1">
          <mxGeometry x="519" y="5169" width="180" height="50" as="geometry" />
        </mxCell>
        <mxCell id="A2y09itvP1W3iUXNutHY-108" value="&lt;span style=&quot;font-size: 15px;&quot;&gt;inception_with_SE_block,&lt;/span&gt;&lt;div style=&quot;font-size: 15px;&quot;&gt;&lt;span style=&quot;font-size: 15px;&quot;&gt;filter=32&lt;/span&gt;&lt;/div&gt;" style="rounded=1;whiteSpace=wrap;html=1;fillColor=#b0e3e6;strokeColor=#0e8088;fontSize=15;fontStyle=1" parent="1" vertex="1">
          <mxGeometry x="509" y="5259" width="200" height="50" as="geometry" />
        </mxCell>
        <mxCell id="A2y09itvP1W3iUXNutHY-109" value="&lt;span style=&quot;font-size: 15px;&quot;&gt;MaxPooling(3,3)&lt;/span&gt;" style="rounded=1;whiteSpace=wrap;html=1;fillColor=#dae8fc;strokeColor=#6c8ebf;fontSize=15;fontStyle=1" parent="1" vertex="1">
          <mxGeometry x="519" y="5349" width="180" height="50" as="geometry" />
        </mxCell>
        <mxCell id="A2y09itvP1W3iUXNutHY-110" value="&lt;span style=&quot;font-size: 15px;&quot;&gt;special_attention_block&lt;/span&gt;" style="rounded=1;whiteSpace=wrap;html=1;fillColor=#fff2cc;strokeColor=#d6b656;fontSize=15;fontStyle=1" parent="1" vertex="1">
          <mxGeometry x="519" y="5439" width="180" height="50" as="geometry" />
        </mxCell>
        <mxCell id="A2y09itvP1W3iUXNutHY-111" value="&lt;span style=&quot;font-size: 15px;&quot;&gt;inception_with_SE_block,&lt;/span&gt;&lt;div style=&quot;font-size: 15px;&quot;&gt;&lt;span style=&quot;font-size: 15px;&quot;&gt;filter=32&lt;/span&gt;&lt;/div&gt;" style="rounded=1;whiteSpace=wrap;html=1;fillColor=#b0e3e6;strokeColor=#0e8088;fontSize=15;fontStyle=1" parent="1" vertex="1">
          <mxGeometry x="509" y="5529" width="200" height="50" as="geometry" />
        </mxCell>
        <mxCell id="A2y09itvP1W3iUXNutHY-112" value="&lt;span style=&quot;font-size: 15px;&quot;&gt;GlobalAveragaPooling&lt;/span&gt;" style="rounded=1;whiteSpace=wrap;html=1;fillColor=#dae8fc;strokeColor=#6c8ebf;fontSize=15;fontStyle=1" parent="1" vertex="1">
          <mxGeometry x="509" y="5619" width="200" height="50" as="geometry" />
        </mxCell>
        <mxCell id="A2y09itvP1W3iUXNutHY-113" value="&lt;span style=&quot;font-size: 15px;&quot;&gt;Dropout(0,3)&lt;/span&gt;" style="rounded=1;whiteSpace=wrap;html=1;fillColor=#dae8fc;strokeColor=#6c8ebf;fontSize=15;fontStyle=1" parent="1" vertex="1">
          <mxGeometry x="517" y="5709" width="180" height="50" as="geometry" />
        </mxCell>
        <mxCell id="A2y09itvP1W3iUXNutHY-114" value="&lt;span style=&quot;font-size: 15px;&quot;&gt;Dense&lt;/span&gt;" style="rounded=1;whiteSpace=wrap;html=1;fillColor=#dae8fc;strokeColor=#6c8ebf;fontSize=15;fontStyle=1" parent="1" vertex="1">
          <mxGeometry x="519" y="5799" width="180" height="50" as="geometry" />
        </mxCell>
        <mxCell id="A2y09itvP1W3iUXNutHY-115" value="&lt;span style=&quot;font-size: 15px;&quot;&gt;Output&lt;/span&gt;" style="rounded=1;whiteSpace=wrap;html=1;fillColor=#f8cecc;strokeColor=#b85450;fontSize=15;fontStyle=1" parent="1" vertex="1">
          <mxGeometry x="519" y="5889" width="180" height="50" as="geometry" />
        </mxCell>
        <mxCell id="A2y09itvP1W3iUXNutHY-118" value="" style="endArrow=classic;html=1;rounded=0;curved=1;exitX=0.5;exitY=1;exitDx=0;exitDy=0;fontSize=15;fontStyle=1" parent="1" source="A2y09itvP1W3iUXNutHY-101" edge="1">
          <mxGeometry width="50" height="50" relative="1" as="geometry">
            <mxPoint x="614" y="4859" as="sourcePoint" />
            <mxPoint x="612" y="4899" as="targetPoint" />
          </mxGeometry>
        </mxCell>
        <mxCell id="A2y09itvP1W3iUXNutHY-119" value="" style="endArrow=classic;html=1;rounded=0;curved=1;exitX=0.5;exitY=1;exitDx=0;exitDy=0;fontSize=15;fontStyle=1" parent="1" edge="1">
          <mxGeometry width="50" height="50" relative="1" as="geometry">
            <mxPoint x="611.5" y="4949" as="sourcePoint" />
            <mxPoint x="611.5" y="4989" as="targetPoint" />
          </mxGeometry>
        </mxCell>
        <mxCell id="A2y09itvP1W3iUXNutHY-120" value="" style="endArrow=classic;html=1;rounded=0;curved=1;exitX=0.5;exitY=1;exitDx=0;exitDy=0;fontSize=15;fontStyle=1" parent="1" edge="1">
          <mxGeometry width="50" height="50" relative="1" as="geometry">
            <mxPoint x="611.5" y="5039" as="sourcePoint" />
            <mxPoint x="611.5" y="5079" as="targetPoint" />
          </mxGeometry>
        </mxCell>
        <mxCell id="A2y09itvP1W3iUXNutHY-121" value="" style="endArrow=classic;html=1;rounded=0;curved=1;exitX=0.5;exitY=1;exitDx=0;exitDy=0;fontSize=15;fontStyle=1" parent="1" edge="1">
          <mxGeometry width="50" height="50" relative="1" as="geometry">
            <mxPoint x="611.5" y="5129" as="sourcePoint" />
            <mxPoint x="611.5" y="5169" as="targetPoint" />
          </mxGeometry>
        </mxCell>
        <mxCell id="A2y09itvP1W3iUXNutHY-122" value="" style="endArrow=classic;html=1;rounded=0;curved=1;exitX=0.5;exitY=1;exitDx=0;exitDy=0;fontSize=15;fontStyle=1" parent="1" edge="1">
          <mxGeometry width="50" height="50" relative="1" as="geometry">
            <mxPoint x="609" y="5219" as="sourcePoint" />
            <mxPoint x="609" y="5259" as="targetPoint" />
          </mxGeometry>
        </mxCell>
        <mxCell id="A2y09itvP1W3iUXNutHY-123" value="" style="endArrow=classic;html=1;rounded=0;curved=1;exitX=0.5;exitY=1;exitDx=0;exitDy=0;fontSize=15;fontStyle=1" parent="1" edge="1">
          <mxGeometry width="50" height="50" relative="1" as="geometry">
            <mxPoint x="608" y="5309" as="sourcePoint" />
            <mxPoint x="608" y="5349" as="targetPoint" />
          </mxGeometry>
        </mxCell>
        <mxCell id="A2y09itvP1W3iUXNutHY-124" value="" style="endArrow=classic;html=1;rounded=0;curved=1;exitX=0.5;exitY=1;exitDx=0;exitDy=0;fontSize=15;fontStyle=1" parent="1" edge="1">
          <mxGeometry width="50" height="50" relative="1" as="geometry">
            <mxPoint x="609" y="5399" as="sourcePoint" />
            <mxPoint x="609" y="5439" as="targetPoint" />
          </mxGeometry>
        </mxCell>
        <mxCell id="A2y09itvP1W3iUXNutHY-125" value="" style="endArrow=classic;html=1;rounded=0;curved=1;exitX=0.5;exitY=1;exitDx=0;exitDy=0;fontSize=15;fontStyle=1" parent="1" edge="1">
          <mxGeometry width="50" height="50" relative="1" as="geometry">
            <mxPoint x="608" y="5489" as="sourcePoint" />
            <mxPoint x="608" y="5529" as="targetPoint" />
          </mxGeometry>
        </mxCell>
        <mxCell id="A2y09itvP1W3iUXNutHY-126" value="" style="endArrow=classic;html=1;rounded=0;curved=1;exitX=0.5;exitY=1;exitDx=0;exitDy=0;fontSize=15;fontStyle=1" parent="1" edge="1">
          <mxGeometry width="50" height="50" relative="1" as="geometry">
            <mxPoint x="608" y="5579" as="sourcePoint" />
            <mxPoint x="608" y="5619" as="targetPoint" />
          </mxGeometry>
        </mxCell>
        <mxCell id="A2y09itvP1W3iUXNutHY-127" value="" style="endArrow=classic;html=1;rounded=0;curved=1;exitX=0.5;exitY=1;exitDx=0;exitDy=0;fontSize=15;fontStyle=1" parent="1" edge="1">
          <mxGeometry width="50" height="50" relative="1" as="geometry">
            <mxPoint x="609" y="5669" as="sourcePoint" />
            <mxPoint x="609" y="5709" as="targetPoint" />
          </mxGeometry>
        </mxCell>
        <mxCell id="A2y09itvP1W3iUXNutHY-128" value="" style="endArrow=classic;html=1;rounded=0;curved=1;exitX=0.5;exitY=1;exitDx=0;exitDy=0;fontSize=15;fontStyle=1" parent="1" edge="1">
          <mxGeometry width="50" height="50" relative="1" as="geometry">
            <mxPoint x="609" y="5759" as="sourcePoint" />
            <mxPoint x="609" y="5799" as="targetPoint" />
          </mxGeometry>
        </mxCell>
        <mxCell id="A2y09itvP1W3iUXNutHY-132" value="" style="endArrow=classic;html=1;rounded=0;curved=1;exitX=0.5;exitY=1;exitDx=0;exitDy=0;fontSize=15;fontStyle=1" parent="1" edge="1">
          <mxGeometry width="50" height="50" relative="1" as="geometry">
            <mxPoint x="609" y="5849" as="sourcePoint" />
            <mxPoint x="609" y="5889" as="targetPoint" />
          </mxGeometry>
        </mxCell>
        <mxCell id="A2y09itvP1W3iUXNutHY-144" style="edgeStyle=orthogonalEdgeStyle;curved=1;rounded=0;orthogonalLoop=1;jettySize=auto;html=1;exitX=0.5;exitY=0;exitDx=0;exitDy=0;entryX=0;entryY=0.5;entryDx=0;entryDy=0;" parent="1" source="A2y09itvP1W3iUXNutHY-134" target="A2y09itvP1W3iUXNutHY-136" edge="1">
          <mxGeometry relative="1" as="geometry">
            <mxPoint x="-400" y="4740" as="targetPoint" />
          </mxGeometry>
        </mxCell>
        <mxCell id="A2y09itvP1W3iUXNutHY-134" value="&lt;font style=&quot;font-size: 25px;&quot;&gt;&lt;b&gt;Dog Breed&lt;/b&gt;&lt;/font&gt;&lt;div style=&quot;font-size: 25px;&quot;&gt;&lt;font style=&quot;font-size: 25px;&quot;&gt;&lt;b&gt;identification&amp;nbsp;&lt;/b&gt;&lt;/font&gt;&lt;/div&gt;&lt;div style=&quot;font-size: 25px;&quot;&gt;&lt;font style=&quot;font-size: 25px;&quot;&gt;&lt;b&gt;Dataset&lt;/b&gt;&lt;/font&gt;&lt;/div&gt;" style="rounded=1;whiteSpace=wrap;html=1;direction=south;fillColor=#d5e8d4;strokeColor=#82b366;" parent="1" vertex="1">
          <mxGeometry x="-720" y="4570" width="230" height="340" as="geometry" />
        </mxCell>
        <mxCell id="A2y09itvP1W3iUXNutHY-135" value="&lt;font style=&quot;font-size: 23px;&quot;&gt;VGG16&lt;/font&gt;" style="rounded=1;whiteSpace=wrap;html=1;fillColor=#ffe6cc;strokeColor=#d79b00;" parent="1" vertex="1">
          <mxGeometry x="-390" y="4540" width="150" height="70" as="geometry" />
        </mxCell>
        <mxCell id="A2y09itvP1W3iUXNutHY-148" style="edgeStyle=orthogonalEdgeStyle;curved=1;rounded=0;orthogonalLoop=1;jettySize=auto;html=1;exitX=1;exitY=0.5;exitDx=0;exitDy=0;entryX=0.5;entryY=1;entryDx=0;entryDy=0;" parent="1" source="A2y09itvP1W3iUXNutHY-136" target="A2y09itvP1W3iUXNutHY-138" edge="1">
          <mxGeometry relative="1" as="geometry" />
        </mxCell>
        <mxCell id="A2y09itvP1W3iUXNutHY-136" value="&lt;font style=&quot;font-size: 23px;&quot;&gt;ResNet50&lt;/font&gt;" style="rounded=1;whiteSpace=wrap;html=1;fillColor=#ffe6cc;strokeColor=#d79b00;" parent="1" vertex="1">
          <mxGeometry x="-390" y="4705" width="150" height="70" as="geometry" />
        </mxCell>
        <mxCell id="A2y09itvP1W3iUXNutHY-137" value="&lt;font style=&quot;font-size: 23px;&quot;&gt;InceptionV3&lt;/font&gt;" style="rounded=1;whiteSpace=wrap;html=1;fillColor=#ffe6cc;strokeColor=#d79b00;" parent="1" vertex="1">
          <mxGeometry x="-390" y="4860" width="150" height="70" as="geometry" />
        </mxCell>
        <mxCell id="A2y09itvP1W3iUXNutHY-150" style="rounded=0;orthogonalLoop=1;jettySize=auto;html=1;exitX=0.5;exitY=0;exitDx=0;exitDy=0;entryX=-0.006;entryY=0.466;entryDx=0;entryDy=0;entryPerimeter=0;" parent="1" source="A2y09itvP1W3iUXNutHY-138" target="A2y09itvP1W3iUXNutHY-139" edge="1">
          <mxGeometry relative="1" as="geometry">
            <mxPoint x="200" y="4740" as="targetPoint" />
          </mxGeometry>
        </mxCell>
        <mxCell id="A2y09itvP1W3iUXNutHY-138" value="&lt;span style=&quot;font-size: 25px;&quot;&gt;&lt;b&gt;Stacking&lt;/b&gt;&lt;/span&gt;&lt;div&gt;&lt;span style=&quot;font-size: 25px;&quot;&gt;&lt;b&gt;Model&lt;/b&gt;&lt;/span&gt;&lt;/div&gt;" style="rounded=1;whiteSpace=wrap;html=1;direction=south;fillColor=#dae8fc;strokeColor=#6c8ebf;" parent="1" vertex="1">
          <mxGeometry x="-130" y="4570" width="230" height="340" as="geometry" />
        </mxCell>
        <mxCell id="A2y09itvP1W3iUXNutHY-139" value="&lt;font style=&quot;font-size: 21px;&quot;&gt;&lt;b&gt;A specific dog&lt;/b&gt;&lt;/font&gt;&lt;div&gt;&lt;font style=&quot;font-size: 21px;&quot;&gt;&lt;b&gt;breed&lt;/b&gt;&lt;/font&gt;&lt;/div&gt;" style="ellipse;whiteSpace=wrap;html=1;aspect=fixed;fillColor=#f8cecc;strokeColor=#b85450;" parent="1" vertex="1">
          <mxGeometry x="210" y="4655" width="180" height="180" as="geometry" />
        </mxCell>
        <mxCell id="A2y09itvP1W3iUXNutHY-141" value="" style="html=1;shadow=0;dashed=0;align=center;verticalAlign=middle;shape=mxgraph.arrows2.arrow;dy=0.6;dx=40;notch=0;rotation=90;" parent="1" vertex="1">
          <mxGeometry x="250" y="4560" width="100" height="70" as="geometry" />
        </mxCell>
        <mxCell id="A2y09itvP1W3iUXNutHY-145" value="" style="endArrow=classic;html=1;rounded=0;curved=1;entryX=0;entryY=0.5;entryDx=0;entryDy=0;" parent="1" target="A2y09itvP1W3iUXNutHY-135" edge="1">
          <mxGeometry width="50" height="50" relative="1" as="geometry">
            <mxPoint x="-440" y="4740" as="sourcePoint" />
            <mxPoint x="-393" y="4690" as="targetPoint" />
          </mxGeometry>
        </mxCell>
        <mxCell id="A2y09itvP1W3iUXNutHY-146" value="" style="endArrow=classic;html=1;rounded=0;curved=1;entryX=0;entryY=0.5;entryDx=0;entryDy=0;" parent="1" target="A2y09itvP1W3iUXNutHY-137" edge="1">
          <mxGeometry width="50" height="50" relative="1" as="geometry">
            <mxPoint x="-440" y="4740" as="sourcePoint" />
            <mxPoint x="-321.5" y="4950" as="targetPoint" />
          </mxGeometry>
        </mxCell>
        <mxCell id="A2y09itvP1W3iUXNutHY-147" value="" style="endArrow=none;html=1;rounded=0;curved=1;" parent="1" edge="1">
          <mxGeometry width="50" height="50" relative="1" as="geometry">
            <mxPoint x="-240" y="4580" as="sourcePoint" />
            <mxPoint x="-180" y="4740" as="targetPoint" />
          </mxGeometry>
        </mxCell>
        <mxCell id="A2y09itvP1W3iUXNutHY-149" value="" style="endArrow=none;html=1;rounded=0;curved=1;" parent="1" edge="1">
          <mxGeometry width="50" height="50" relative="1" as="geometry">
            <mxPoint x="-240" y="4900" as="sourcePoint" />
            <mxPoint x="-180" y="4740" as="targetPoint" />
          </mxGeometry>
        </mxCell>
        <mxCell id="A2y09itvP1W3iUXNutHY-151" value="&lt;b&gt;&lt;font style=&quot;font-size: 21px;&quot;&gt;Output&lt;/font&gt;&lt;/b&gt;" style="text;html=1;align=center;verticalAlign=middle;resizable=0;points=[];autosize=1;strokeColor=none;fillColor=none;" parent="1" vertex="1">
          <mxGeometry x="255" y="4490" width="90" height="40" as="geometry" />
        </mxCell>
        <mxCell id="A2y09itvP1W3iUXNutHY-152" value="" style="html=1;shadow=0;dashed=0;align=center;verticalAlign=middle;shape=mxgraph.arrows2.arrow;dy=0.6;dx=40;notch=0;rotation=90;" parent="1" vertex="1">
          <mxGeometry x="-655" y="4480" width="100" height="70" as="geometry" />
        </mxCell>
        <mxCell id="A2y09itvP1W3iUXNutHY-153" value="&lt;b&gt;&lt;font style=&quot;font-size: 21px;&quot;&gt;Input&lt;/font&gt;&lt;/b&gt;" style="text;html=1;align=center;verticalAlign=middle;resizable=0;points=[];autosize=1;strokeColor=none;fillColor=none;" parent="1" vertex="1">
          <mxGeometry x="-640" y="4410" width="70" height="40" as="geometry" />
        </mxCell>
        <mxCell id="zMVrUrAunQJpq_xIm7K5-2" style="rounded=1;orthogonalLoop=1;jettySize=auto;html=1;exitX=0.146;exitY=0.004;exitDx=0;exitDy=0;entryX=0.75;entryY=1;entryDx=0;entryDy=0;labelBackgroundColor=none;fontColor=default;fontFamily=Helvetica;exitPerimeter=0;" parent="1" source="zMVrUrAunQJpq_xIm7K5-4" target="zMVrUrAunQJpq_xIm7K5-5" edge="1">
          <mxGeometry relative="1" as="geometry" />
        </mxCell>
        <mxCell id="zMVrUrAunQJpq_xIm7K5-3" style="rounded=1;orthogonalLoop=1;jettySize=auto;html=1;exitX=0.841;exitY=0.027;exitDx=0;exitDy=0;entryX=0.25;entryY=1;entryDx=0;entryDy=0;labelBackgroundColor=none;fontColor=default;fontFamily=Helvetica;exitPerimeter=0;" parent="1" source="zMVrUrAunQJpq_xIm7K5-4" target="zMVrUrAunQJpq_xIm7K5-6" edge="1">
          <mxGeometry relative="1" as="geometry" />
        </mxCell>
        <mxCell id="zMVrUrAunQJpq_xIm7K5-4" value="Previous Layer" style="rounded=1;whiteSpace=wrap;html=1;labelBackgroundColor=none;fontFamily=Helvetica;fillColor=#d5e8d4;strokeColor=#82b366;" parent="1" vertex="1">
          <mxGeometry x="415" y="3099" width="120" height="60" as="geometry" />
        </mxCell>
        <mxCell id="zMVrUrAunQJpq_xIm7K5-5" value="GlobalAveragePooling&lt;br&gt;Layer" style="rounded=1;whiteSpace=wrap;html=1;labelBackgroundColor=none;fontFamily=Helvetica;fillColor=#dae8fc;strokeColor=#6c8ebf;" parent="1" vertex="1">
          <mxGeometry x="335" y="3009" width="130" height="60" as="geometry" />
        </mxCell>
        <mxCell id="zMVrUrAunQJpq_xIm7K5-6" value="GlobalMaxPooling&lt;br&gt;Layer" style="rounded=1;whiteSpace=wrap;html=1;labelBackgroundColor=none;fontFamily=Helvetica;fillColor=#dae8fc;strokeColor=#6c8ebf;" parent="1" vertex="1">
          <mxGeometry x="485" y="3009" width="120" height="60" as="geometry" />
        </mxCell>
        <mxCell id="zMVrUrAunQJpq_xIm7K5-10" style="edgeStyle=none;curved=1;rounded=0;orthogonalLoop=1;jettySize=auto;html=1;exitX=0.5;exitY=0;exitDx=0;exitDy=0;fontSize=12;startSize=8;endSize=8;" parent="1" source="zMVrUrAunQJpq_xIm7K5-7" edge="1">
          <mxGeometry relative="1" as="geometry">
            <mxPoint x="475" y="2884" as="targetPoint" />
          </mxGeometry>
        </mxCell>
        <mxCell id="zMVrUrAunQJpq_xIm7K5-7" value="7X7 conv,&lt;br&gt;Filters = 1,&lt;br&gt;sigmod" style="rounded=1;whiteSpace=wrap;html=1;labelBackgroundColor=none;fontFamily=Helvetica;fillColor=#f8cecc;strokeColor=#b85450;" parent="1" vertex="1">
          <mxGeometry x="415" y="2914" width="120" height="60" as="geometry" />
        </mxCell>
        <mxCell id="zMVrUrAunQJpq_xIm7K5-8" style="edgeStyle=orthogonalEdgeStyle;rounded=1;orthogonalLoop=1;jettySize=auto;html=1;exitX=0.75;exitY=0;exitDx=0;exitDy=0;entryX=0.149;entryY=0.989;entryDx=0;entryDy=0;entryPerimeter=0;labelBackgroundColor=none;fontColor=default;fontFamily=Helvetica;" parent="1" source="zMVrUrAunQJpq_xIm7K5-5" target="zMVrUrAunQJpq_xIm7K5-7" edge="1">
          <mxGeometry relative="1" as="geometry" />
        </mxCell>
        <mxCell id="zMVrUrAunQJpq_xIm7K5-9" style="edgeStyle=orthogonalEdgeStyle;rounded=1;orthogonalLoop=1;jettySize=auto;html=1;exitX=0.25;exitY=0;exitDx=0;exitDy=0;entryX=0.829;entryY=0.975;entryDx=0;entryDy=0;entryPerimeter=0;labelBackgroundColor=none;fontColor=default;fontFamily=Helvetica;" parent="1" source="zMVrUrAunQJpq_xIm7K5-6" target="zMVrUrAunQJpq_xIm7K5-7" edge="1">
          <mxGeometry relative="1" as="geometry" />
        </mxCell>
        <mxCell id="zMVrUrAunQJpq_xIm7K5-11" style="edgeStyle=none;curved=1;rounded=0;orthogonalLoop=1;jettySize=auto;html=1;entryX=0.5;entryY=1;entryDx=0;entryDy=0;fontSize=12;startSize=8;endSize=8;" parent="1" target="zMVrUrAunQJpq_xIm7K5-4" edge="1">
          <mxGeometry relative="1" as="geometry">
            <mxPoint x="475" y="3184" as="sourcePoint" />
          </mxGeometry>
        </mxCell>
        <mxCell id="zMVrUrAunQJpq_xIm7K5-12" value="" style="ellipse;whiteSpace=wrap;html=1;aspect=fixed;fontSize=16;fontFamily=Helvetica;labelBackgroundColor=none;rounded=1;fillColor=#f8cecc;strokeColor=#b85450;" parent="1" vertex="1">
          <mxGeometry x="168" y="4108" width="56" height="56" as="geometry" />
        </mxCell>
        <mxCell id="zMVrUrAunQJpq_xIm7K5-13" style="edgeStyle=none;curved=1;rounded=1;orthogonalLoop=1;jettySize=auto;html=1;exitX=0.5;exitY=1;exitDx=0;exitDy=0;entryX=0.5;entryY=0;entryDx=0;entryDy=0;fontSize=16;startSize=8;endSize=8;fontFamily=Helvetica;labelBackgroundColor=none;fontColor=default;" parent="1" source="zMVrUrAunQJpq_xIm7K5-14" target="zMVrUrAunQJpq_xIm7K5-16" edge="1">
          <mxGeometry relative="1" as="geometry" />
        </mxCell>
        <mxCell id="zMVrUrAunQJpq_xIm7K5-14" value="Conv(3X3)&lt;br style=&quot;font-size: 16px;&quot;&gt;BatchNormalization&lt;br style=&quot;font-size: 16px;&quot;&gt;ReLU" style="rounded=1;whiteSpace=wrap;html=1;fontSize=16;fontFamily=Helvetica;labelBackgroundColor=none;fillColor=#d5e8d4;strokeColor=#82b366;" parent="1" vertex="1">
          <mxGeometry x="110" y="3712" width="172" height="95" as="geometry" />
        </mxCell>
        <mxCell id="zMVrUrAunQJpq_xIm7K5-15" style="edgeStyle=none;curved=1;rounded=1;orthogonalLoop=1;jettySize=auto;html=1;exitX=0.5;exitY=1;exitDx=0;exitDy=0;entryX=0.5;entryY=0;entryDx=0;entryDy=0;fontSize=16;startSize=8;endSize=8;fontFamily=Helvetica;labelBackgroundColor=none;fontColor=default;" parent="1" source="zMVrUrAunQJpq_xIm7K5-16" target="zMVrUrAunQJpq_xIm7K5-18" edge="1">
          <mxGeometry relative="1" as="geometry" />
        </mxCell>
        <mxCell id="zMVrUrAunQJpq_xIm7K5-16" value="Conv(3X3)&lt;br style=&quot;font-size: 16px;&quot;&gt;BatchNormalization&lt;br style=&quot;font-size: 16px;&quot;&gt;ReLU" style="rounded=1;whiteSpace=wrap;html=1;fontSize=16;fontFamily=Helvetica;labelBackgroundColor=none;fillColor=#dae8fc;strokeColor=#6c8ebf;" parent="1" vertex="1">
          <mxGeometry x="110" y="3843" width="172" height="95" as="geometry" />
        </mxCell>
        <mxCell id="zMVrUrAunQJpq_xIm7K5-17" style="edgeStyle=none;curved=1;rounded=1;orthogonalLoop=1;jettySize=auto;html=1;exitX=0.5;exitY=1;exitDx=0;exitDy=0;fontSize=16;startSize=8;endSize=8;entryX=0.5;entryY=0;entryDx=0;entryDy=0;fontFamily=Helvetica;labelBackgroundColor=none;fontColor=default;" parent="1" source="zMVrUrAunQJpq_xIm7K5-18" target="zMVrUrAunQJpq_xIm7K5-12" edge="1">
          <mxGeometry relative="1" as="geometry">
            <mxPoint x="196" y="4098" as="targetPoint" />
          </mxGeometry>
        </mxCell>
        <mxCell id="zMVrUrAunQJpq_xIm7K5-18" value="DepthwiseConv(3X3)&lt;br style=&quot;font-size: 16px;&quot;&gt;BatchNormalization&lt;br style=&quot;font-size: 16px;&quot;&gt;ReLU" style="rounded=1;whiteSpace=wrap;html=1;fontSize=16;fontFamily=Helvetica;labelBackgroundColor=none;fillColor=#dae8fc;strokeColor=#6c8ebf;" parent="1" vertex="1">
          <mxGeometry x="110" y="3974" width="172" height="95" as="geometry" />
        </mxCell>
        <mxCell id="zMVrUrAunQJpq_xIm7K5-19" style="edgeStyle=none;curved=1;rounded=1;orthogonalLoop=1;jettySize=auto;html=1;exitX=0.5;exitY=1;exitDx=0;exitDy=0;fontSize=16;startSize=8;endSize=8;fontFamily=Helvetica;labelBackgroundColor=none;fontColor=default;" parent="1" source="zMVrUrAunQJpq_xIm7K5-12" edge="1">
          <mxGeometry relative="1" as="geometry">
            <mxPoint x="196" y="4209" as="targetPoint" />
          </mxGeometry>
        </mxCell>
        <mxCell id="zMVrUrAunQJpq_xIm7K5-20" value="" style="endArrow=none;html=1;rounded=1;fontSize=16;startSize=8;endSize=8;curved=1;exitX=0;exitY=0.5;exitDx=0;exitDy=0;entryX=1;entryY=0.5;entryDx=0;entryDy=0;fontFamily=Helvetica;labelBackgroundColor=none;fontColor=default;" parent="1" source="zMVrUrAunQJpq_xIm7K5-12" target="zMVrUrAunQJpq_xIm7K5-12" edge="1">
          <mxGeometry width="50" height="50" relative="1" as="geometry">
            <mxPoint x="214" y="4277" as="sourcePoint" />
            <mxPoint x="264" y="4227" as="targetPoint" />
          </mxGeometry>
        </mxCell>
        <mxCell id="zMVrUrAunQJpq_xIm7K5-21" value="" style="endArrow=none;html=1;rounded=1;fontSize=16;startSize=8;endSize=8;curved=1;entryX=0.5;entryY=0;entryDx=0;entryDy=0;exitX=0.5;exitY=1;exitDx=0;exitDy=0;fontFamily=Helvetica;labelBackgroundColor=none;fontColor=default;" parent="1" source="zMVrUrAunQJpq_xIm7K5-12" target="zMVrUrAunQJpq_xIm7K5-12" edge="1">
          <mxGeometry width="50" height="50" relative="1" as="geometry">
            <mxPoint x="131" y="4273" as="sourcePoint" />
            <mxPoint x="181" y="4223" as="targetPoint" />
          </mxGeometry>
        </mxCell>
        <mxCell id="zMVrUrAunQJpq_xIm7K5-22" value="ReLU" style="text;html=1;align=center;verticalAlign=middle;resizable=0;points=[];autosize=1;strokeColor=none;fillColor=none;fontSize=16;fontFamily=Helvetica;labelBackgroundColor=none;rounded=1;" parent="1" vertex="1">
          <mxGeometry x="189" y="4072" width="60" height="30" as="geometry" />
        </mxCell>
        <mxCell id="zMVrUrAunQJpq_xIm7K5-23" value="" style="endArrow=classic;html=1;rounded=1;fontSize=16;startSize=8;endSize=8;curved=1;entryX=0.5;entryY=0;entryDx=0;entryDy=0;fontFamily=Helvetica;labelBackgroundColor=none;fontColor=default;" parent="1" target="zMVrUrAunQJpq_xIm7K5-14" edge="1">
          <mxGeometry width="50" height="50" relative="1" as="geometry">
            <mxPoint x="196" y="3637" as="sourcePoint" />
            <mxPoint x="212" y="3590" as="targetPoint" />
          </mxGeometry>
        </mxCell>
        <mxCell id="zMVrUrAunQJpq_xIm7K5-24" value="" style="endArrow=classic;html=1;rounded=1;fontSize=16;startSize=8;endSize=8;curved=1;entryX=1;entryY=0.5;entryDx=0;entryDy=0;fontFamily=Helvetica;labelBackgroundColor=none;fontColor=default;" parent="1" target="zMVrUrAunQJpq_xIm7K5-12" edge="1">
          <mxGeometry width="50" height="50" relative="1" as="geometry">
            <mxPoint x="200" y="3675" as="sourcePoint" />
            <mxPoint x="337" y="3648" as="targetPoint" />
            <Array as="points">
              <mxPoint x="370" y="3696" />
              <mxPoint x="389" y="3947" />
              <mxPoint x="267" y="4136" />
            </Array>
          </mxGeometry>
        </mxCell>
        <mxCell id="zMVrUrAunQJpq_xIm7K5-25" value="" style="ellipse;whiteSpace=wrap;html=1;aspect=fixed;fontSize=16;fontFamily=Helvetica;labelBackgroundColor=none;rounded=1;fillColor=#f8cecc;strokeColor=#b85450;" parent="1" vertex="1">
          <mxGeometry x="474" y="4111" width="56" height="56" as="geometry" />
        </mxCell>
        <mxCell id="zMVrUrAunQJpq_xIm7K5-26" style="edgeStyle=none;curved=1;rounded=1;orthogonalLoop=1;jettySize=auto;html=1;exitX=0.5;exitY=1;exitDx=0;exitDy=0;entryX=0.5;entryY=0;entryDx=0;entryDy=0;fontSize=16;startSize=8;endSize=8;fontFamily=Helvetica;labelBackgroundColor=none;fontColor=default;" parent="1" source="zMVrUrAunQJpq_xIm7K5-27" target="zMVrUrAunQJpq_xIm7K5-29" edge="1">
          <mxGeometry relative="1" as="geometry" />
        </mxCell>
        <mxCell id="zMVrUrAunQJpq_xIm7K5-27" value="Conv(3X3)&lt;br style=&quot;font-size: 16px;&quot;&gt;BatchNormalization&lt;br style=&quot;font-size: 16px;&quot;&gt;ReLU" style="rounded=1;whiteSpace=wrap;html=1;fontSize=16;fontFamily=Helvetica;labelBackgroundColor=none;fillColor=#d5e8d4;strokeColor=#82b366;" parent="1" vertex="1">
          <mxGeometry x="416" y="3715" width="172" height="95" as="geometry" />
        </mxCell>
        <mxCell id="zMVrUrAunQJpq_xIm7K5-28" style="edgeStyle=none;curved=1;rounded=1;orthogonalLoop=1;jettySize=auto;html=1;exitX=0.5;exitY=1;exitDx=0;exitDy=0;entryX=0.5;entryY=0;entryDx=0;entryDy=0;fontSize=16;startSize=8;endSize=8;fontFamily=Helvetica;labelBackgroundColor=none;fontColor=default;" parent="1" source="zMVrUrAunQJpq_xIm7K5-29" target="zMVrUrAunQJpq_xIm7K5-31" edge="1">
          <mxGeometry relative="1" as="geometry" />
        </mxCell>
        <mxCell id="zMVrUrAunQJpq_xIm7K5-29" value="Conv(3X3)&lt;br style=&quot;font-size: 16px;&quot;&gt;BatchNormalization&lt;br style=&quot;font-size: 16px;&quot;&gt;ReLU" style="rounded=1;whiteSpace=wrap;html=1;fontSize=16;fontFamily=Helvetica;labelBackgroundColor=none;fillColor=#dae8fc;strokeColor=#6c8ebf;" parent="1" vertex="1">
          <mxGeometry x="416" y="3846" width="172" height="95" as="geometry" />
        </mxCell>
        <mxCell id="zMVrUrAunQJpq_xIm7K5-30" style="edgeStyle=none;curved=1;rounded=1;orthogonalLoop=1;jettySize=auto;html=1;exitX=0.5;exitY=1;exitDx=0;exitDy=0;fontSize=16;startSize=8;endSize=8;entryX=0.5;entryY=0;entryDx=0;entryDy=0;fontFamily=Helvetica;labelBackgroundColor=none;fontColor=default;" parent="1" source="zMVrUrAunQJpq_xIm7K5-31" target="zMVrUrAunQJpq_xIm7K5-25" edge="1">
          <mxGeometry relative="1" as="geometry">
            <mxPoint x="502" y="4101" as="targetPoint" />
          </mxGeometry>
        </mxCell>
        <mxCell id="zMVrUrAunQJpq_xIm7K5-31" value="DepthwiseConv(3X3)&lt;br style=&quot;font-size: 16px;&quot;&gt;BatchNormalization&lt;br style=&quot;font-size: 16px;&quot;&gt;ReLU" style="rounded=1;whiteSpace=wrap;html=1;fontSize=16;fontFamily=Helvetica;labelBackgroundColor=none;fillColor=#dae8fc;strokeColor=#6c8ebf;" parent="1" vertex="1">
          <mxGeometry x="416" y="3977" width="172" height="95" as="geometry" />
        </mxCell>
        <mxCell id="zMVrUrAunQJpq_xIm7K5-32" style="edgeStyle=none;curved=1;rounded=1;orthogonalLoop=1;jettySize=auto;html=1;exitX=0.5;exitY=1;exitDx=0;exitDy=0;fontSize=16;startSize=8;endSize=8;fontFamily=Helvetica;labelBackgroundColor=none;fontColor=default;" parent="1" source="zMVrUrAunQJpq_xIm7K5-25" edge="1">
          <mxGeometry relative="1" as="geometry">
            <mxPoint x="502" y="4212" as="targetPoint" />
          </mxGeometry>
        </mxCell>
        <mxCell id="zMVrUrAunQJpq_xIm7K5-33" value="" style="endArrow=none;html=1;rounded=1;fontSize=16;startSize=8;endSize=8;curved=1;exitX=0;exitY=0.5;exitDx=0;exitDy=0;entryX=1;entryY=0.5;entryDx=0;entryDy=0;fontFamily=Helvetica;labelBackgroundColor=none;fontColor=default;" parent="1" source="zMVrUrAunQJpq_xIm7K5-25" target="zMVrUrAunQJpq_xIm7K5-25" edge="1">
          <mxGeometry width="50" height="50" relative="1" as="geometry">
            <mxPoint x="520" y="4280" as="sourcePoint" />
            <mxPoint x="570" y="4230" as="targetPoint" />
          </mxGeometry>
        </mxCell>
        <mxCell id="zMVrUrAunQJpq_xIm7K5-34" value="" style="endArrow=none;html=1;rounded=1;fontSize=16;startSize=8;endSize=8;curved=1;entryX=0.5;entryY=0;entryDx=0;entryDy=0;exitX=0.5;exitY=1;exitDx=0;exitDy=0;fontFamily=Helvetica;labelBackgroundColor=none;fontColor=default;" parent="1" source="zMVrUrAunQJpq_xIm7K5-25" target="zMVrUrAunQJpq_xIm7K5-25" edge="1">
          <mxGeometry width="50" height="50" relative="1" as="geometry">
            <mxPoint x="437" y="4276" as="sourcePoint" />
            <mxPoint x="487" y="4226" as="targetPoint" />
          </mxGeometry>
        </mxCell>
        <mxCell id="zMVrUrAunQJpq_xIm7K5-35" value="ReLU" style="text;html=1;align=center;verticalAlign=middle;resizable=0;points=[];autosize=1;strokeColor=none;fillColor=none;fontSize=16;fontFamily=Helvetica;labelBackgroundColor=none;rounded=1;" parent="1" vertex="1">
          <mxGeometry x="495" y="4075" width="60" height="30" as="geometry" />
        </mxCell>
        <mxCell id="zMVrUrAunQJpq_xIm7K5-36" value="" style="endArrow=classic;html=1;rounded=1;fontSize=16;startSize=8;endSize=8;curved=1;entryX=0.5;entryY=0;entryDx=0;entryDy=0;fontFamily=Helvetica;labelBackgroundColor=none;fontColor=default;" parent="1" target="zMVrUrAunQJpq_xIm7K5-27" edge="1">
          <mxGeometry width="50" height="50" relative="1" as="geometry">
            <mxPoint x="502" y="3640" as="sourcePoint" />
            <mxPoint x="518" y="3593" as="targetPoint" />
          </mxGeometry>
        </mxCell>
        <mxCell id="zMVrUrAunQJpq_xIm7K5-38" value="" style="endArrow=classic;html=1;rounded=1;fontSize=16;startSize=8;endSize=8;curved=1;entryX=0.5;entryY=0;entryDx=0;entryDy=0;fontFamily=Helvetica;labelBackgroundColor=none;fontColor=default;" parent="1" target="zMVrUrAunQJpq_xIm7K5-40" edge="1">
          <mxGeometry width="50" height="50" relative="1" as="geometry">
            <mxPoint x="506" y="3678" as="sourcePoint" />
            <mxPoint x="530" y="4139" as="targetPoint" />
            <Array as="points">
              <mxPoint x="628" y="3690" />
            </Array>
          </mxGeometry>
        </mxCell>
        <mxCell id="zMVrUrAunQJpq_xIm7K5-39" style="edgeStyle=orthogonalEdgeStyle;rounded=1;orthogonalLoop=1;jettySize=auto;html=1;exitX=0.5;exitY=1;exitDx=0;exitDy=0;entryX=1;entryY=0.5;entryDx=0;entryDy=0;fontFamily=Helvetica;fontSize=16;labelBackgroundColor=none;fontColor=default;curved=1;" parent="1" source="zMVrUrAunQJpq_xIm7K5-40" target="zMVrUrAunQJpq_xIm7K5-25" edge="1">
          <mxGeometry relative="1" as="geometry">
            <mxPoint x="692" y="3898" as="targetPoint" />
          </mxGeometry>
        </mxCell>
        <mxCell id="zMVrUrAunQJpq_xIm7K5-40" value="Conv(1X1)" style="rounded=1;whiteSpace=wrap;html=1;fontFamily=Helvetica;fontSize=16;labelBackgroundColor=none;fillColor=#dae8fc;strokeColor=#6c8ebf;" parent="1" vertex="1">
          <mxGeometry x="632" y="3810" width="120" height="60" as="geometry" />
        </mxCell>
        <mxCell id="zMVrUrAunQJpq_xIm7K5-42" style="rounded=1;orthogonalLoop=1;jettySize=auto;html=1;exitX=0.5;exitY=0;exitDx=0;exitDy=0;entryX=0.5;entryY=1;entryDx=0;entryDy=0;labelBackgroundColor=none;fontColor=default;fontFamily=Helvetica;fontSize=16;" parent="1" source="zMVrUrAunQJpq_xIm7K5-43" target="zMVrUrAunQJpq_xIm7K5-47" edge="1">
          <mxGeometry relative="1" as="geometry" />
        </mxCell>
        <mxCell id="zMVrUrAunQJpq_xIm7K5-43" value="Inputs" style="rounded=1;whiteSpace=wrap;html=1;labelBackgroundColor=none;fontFamily=Helvetica;fontSize=16;fillColor=#d5e8d4;strokeColor=#82b366;" parent="1" vertex="1">
          <mxGeometry x="355" y="939" width="120" height="40" as="geometry" />
        </mxCell>
        <mxCell id="zMVrUrAunQJpq_xIm7K5-44" style="edgeStyle=orthogonalEdgeStyle;rounded=1;orthogonalLoop=1;jettySize=auto;html=1;exitX=0.5;exitY=0;exitDx=0;exitDy=0;entryX=0.5;entryY=1;entryDx=0;entryDy=0;labelBackgroundColor=none;fontColor=default;fontFamily=Helvetica;fontSize=16;" parent="1" source="zMVrUrAunQJpq_xIm7K5-45" target="zMVrUrAunQJpq_xIm7K5-49" edge="1">
          <mxGeometry relative="1" as="geometry" />
        </mxCell>
        <mxCell id="zMVrUrAunQJpq_xIm7K5-45" value="1x1xC" style="rounded=1;whiteSpace=wrap;html=1;labelBackgroundColor=none;fontFamily=Helvetica;fontSize=16;fillColor=#dae8fc;strokeColor=#6c8ebf;" parent="1" vertex="1">
          <mxGeometry x="354" y="770" width="120" height="40" as="geometry" />
        </mxCell>
        <mxCell id="zMVrUrAunQJpq_xIm7K5-46" style="rounded=1;orthogonalLoop=1;jettySize=auto;html=1;exitX=0.5;exitY=0;exitDx=0;exitDy=0;entryX=0.5;entryY=1;entryDx=0;entryDy=0;labelBackgroundColor=none;fontColor=default;fontFamily=Helvetica;fontSize=16;" parent="1" source="zMVrUrAunQJpq_xIm7K5-47" target="zMVrUrAunQJpq_xIm7K5-45" edge="1">
          <mxGeometry relative="1" as="geometry" />
        </mxCell>
        <mxCell id="zMVrUrAunQJpq_xIm7K5-47" value="GlobalAveragaPooling" style="rounded=1;whiteSpace=wrap;html=1;labelBackgroundColor=none;fontFamily=Helvetica;fontSize=16;fillColor=#dae8fc;strokeColor=#6c8ebf;" parent="1" vertex="1">
          <mxGeometry x="329" y="860" width="170" height="40" as="geometry" />
        </mxCell>
        <mxCell id="zMVrUrAunQJpq_xIm7K5-48" style="edgeStyle=orthogonalEdgeStyle;rounded=1;orthogonalLoop=1;jettySize=auto;html=1;exitX=0.5;exitY=0;exitDx=0;exitDy=0;entryX=0.5;entryY=1;entryDx=0;entryDy=0;labelBackgroundColor=none;fontColor=default;fontFamily=Helvetica;fontSize=16;" parent="1" source="zMVrUrAunQJpq_xIm7K5-49" target="zMVrUrAunQJpq_xIm7K5-51" edge="1">
          <mxGeometry relative="1" as="geometry" />
        </mxCell>
        <mxCell id="zMVrUrAunQJpq_xIm7K5-49" value="Dense" style="rounded=1;whiteSpace=wrap;html=1;labelBackgroundColor=none;fontFamily=Helvetica;fontSize=16;fillColor=#f8cecc;strokeColor=#b85450;" parent="1" vertex="1">
          <mxGeometry x="354" y="680" width="120" height="40" as="geometry" />
        </mxCell>
        <mxCell id="zMVrUrAunQJpq_xIm7K5-50" style="edgeStyle=orthogonalEdgeStyle;rounded=1;orthogonalLoop=1;jettySize=auto;html=1;exitX=0.5;exitY=0;exitDx=0;exitDy=0;labelBackgroundColor=none;fontColor=default;fontFamily=Helvetica;fontSize=16;" parent="1" source="zMVrUrAunQJpq_xIm7K5-51" edge="1">
          <mxGeometry relative="1" as="geometry">
            <mxPoint x="414" y="550" as="targetPoint" />
          </mxGeometry>
        </mxCell>
        <mxCell id="zMVrUrAunQJpq_xIm7K5-51" value="Dense" style="rounded=1;whiteSpace=wrap;html=1;labelBackgroundColor=none;fontFamily=Helvetica;fontSize=16;fillColor=#f8cecc;strokeColor=#b85450;" parent="1" vertex="1">
          <mxGeometry x="356" y="590" width="116" height="40" as="geometry" />
        </mxCell>
        <mxCell id="zMVrUrAunQJpq_xIm7K5-52" value="ReLU" style="text;html=1;align=center;verticalAlign=middle;resizable=0;points=[];autosize=1;strokeColor=none;fillColor=none;labelBackgroundColor=none;rounded=1;fontFamily=Helvetica;fontSize=16;" parent="1" vertex="1">
          <mxGeometry x="420.5" y="639.5" width="59" height="31" as="geometry" />
        </mxCell>
        <mxCell id="zMVrUrAunQJpq_xIm7K5-53" value="Sigmoid" style="text;html=1;align=center;verticalAlign=middle;resizable=0;points=[];autosize=1;strokeColor=none;fillColor=none;labelBackgroundColor=none;rounded=1;fontFamily=Helvetica;fontSize=16;" parent="1" vertex="1">
          <mxGeometry x="412" y="555" width="76" height="31" as="geometry" />
        </mxCell>
        <mxCell id="zMVrUrAunQJpq_xIm7K5-55" value="SE block" style="rounded=1;whiteSpace=wrap;html=1;labelBackgroundColor=none;fontFamily=Helvetica;fontSize=16;fillColor=#f8cecc;strokeColor=#b85450;" parent="1" vertex="1">
          <mxGeometry x="354" y="60" width="120" height="40" as="geometry" />
        </mxCell>
        <mxCell id="zMVrUrAunQJpq_xIm7K5-56" style="edgeStyle=orthogonalEdgeStyle;rounded=1;orthogonalLoop=1;jettySize=auto;html=1;exitX=0.5;exitY=0;exitDx=0;exitDy=0;entryX=0.5;entryY=1;entryDx=0;entryDy=0;labelBackgroundColor=none;fontColor=default;fontFamily=Helvetica;fontSize=16;" parent="1" source="zMVrUrAunQJpq_xIm7K5-57" target="zMVrUrAunQJpq_xIm7K5-55" edge="1">
          <mxGeometry relative="1" as="geometry">
            <Array as="points">
              <mxPoint x="190" y="140" />
              <mxPoint x="414" y="140" />
            </Array>
          </mxGeometry>
        </mxCell>
        <mxCell id="zMVrUrAunQJpq_xIm7K5-57" value="conv(1,1)" style="rounded=1;whiteSpace=wrap;html=1;labelBackgroundColor=none;fontFamily=Helvetica;fontSize=16;fillColor=#dae8fc;strokeColor=#6c8ebf;" parent="1" vertex="1">
          <mxGeometry x="130" y="220" width="120" height="40" as="geometry" />
        </mxCell>
        <mxCell id="zMVrUrAunQJpq_xIm7K5-58" style="edgeStyle=orthogonalEdgeStyle;rounded=1;orthogonalLoop=1;jettySize=auto;html=1;exitX=0.5;exitY=0;exitDx=0;exitDy=0;entryX=0.5;entryY=1;entryDx=0;entryDy=0;labelBackgroundColor=none;fontColor=default;fontFamily=Helvetica;fontSize=16;" parent="1" source="zMVrUrAunQJpq_xIm7K5-59" target="zMVrUrAunQJpq_xIm7K5-55" edge="1">
          <mxGeometry relative="1" as="geometry">
            <Array as="points">
              <mxPoint x="340" y="140" />
              <mxPoint x="414" y="140" />
            </Array>
          </mxGeometry>
        </mxCell>
        <mxCell id="zMVrUrAunQJpq_xIm7K5-59" value="conv(3,3)" style="rounded=1;whiteSpace=wrap;html=1;labelBackgroundColor=none;fontFamily=Helvetica;fontSize=16;fillColor=#dae8fc;strokeColor=#6c8ebf;" parent="1" vertex="1">
          <mxGeometry x="280" y="220" width="120" height="40" as="geometry" />
        </mxCell>
        <mxCell id="zMVrUrAunQJpq_xIm7K5-60" style="edgeStyle=orthogonalEdgeStyle;rounded=1;orthogonalLoop=1;jettySize=auto;html=1;exitX=0.5;exitY=0;exitDx=0;exitDy=0;entryX=0.5;entryY=1;entryDx=0;entryDy=0;labelBackgroundColor=none;fontColor=default;fontFamily=Helvetica;fontSize=16;" parent="1" source="zMVrUrAunQJpq_xIm7K5-61" target="zMVrUrAunQJpq_xIm7K5-55" edge="1">
          <mxGeometry relative="1" as="geometry">
            <Array as="points">
              <mxPoint x="500" y="140" />
              <mxPoint x="414" y="140" />
            </Array>
          </mxGeometry>
        </mxCell>
        <mxCell id="zMVrUrAunQJpq_xIm7K5-61" value="conv(3,3)" style="rounded=1;whiteSpace=wrap;html=1;labelBackgroundColor=none;fontFamily=Helvetica;fontSize=16;fillColor=#dae8fc;strokeColor=#6c8ebf;" parent="1" vertex="1">
          <mxGeometry x="440" y="160" width="120" height="40" as="geometry" />
        </mxCell>
        <mxCell id="zMVrUrAunQJpq_xIm7K5-62" style="edgeStyle=orthogonalEdgeStyle;rounded=1;orthogonalLoop=1;jettySize=auto;html=1;exitX=0.5;exitY=0;exitDx=0;exitDy=0;entryX=0.5;entryY=1;entryDx=0;entryDy=0;labelBackgroundColor=none;fontColor=default;fontFamily=Helvetica;fontSize=16;" parent="1" source="zMVrUrAunQJpq_xIm7K5-63" target="zMVrUrAunQJpq_xIm7K5-61" edge="1">
          <mxGeometry relative="1" as="geometry" />
        </mxCell>
        <mxCell id="zMVrUrAunQJpq_xIm7K5-63" value="conv(3,3)" style="rounded=1;whiteSpace=wrap;html=1;labelBackgroundColor=none;fontFamily=Helvetica;fontSize=16;fillColor=#dae8fc;strokeColor=#6c8ebf;" parent="1" vertex="1">
          <mxGeometry x="440" y="220" width="120" height="40" as="geometry" />
        </mxCell>
        <mxCell id="zMVrUrAunQJpq_xIm7K5-64" style="edgeStyle=orthogonalEdgeStyle;rounded=1;orthogonalLoop=1;jettySize=auto;html=1;exitX=0.5;exitY=0;exitDx=0;exitDy=0;labelBackgroundColor=none;fontColor=default;fontFamily=Helvetica;fontSize=16;" parent="1" source="zMVrUrAunQJpq_xIm7K5-65" target="zMVrUrAunQJpq_xIm7K5-63" edge="1">
          <mxGeometry relative="1" as="geometry" />
        </mxCell>
        <mxCell id="zMVrUrAunQJpq_xIm7K5-65" value="conv(1,1)" style="rounded=1;whiteSpace=wrap;html=1;labelBackgroundColor=none;fontFamily=Helvetica;fontSize=16;fillColor=#dae8fc;strokeColor=#6c8ebf;" parent="1" vertex="1">
          <mxGeometry x="440" y="280" width="120" height="40" as="geometry" />
        </mxCell>
        <mxCell id="zMVrUrAunQJpq_xIm7K5-66" value="conv(1,1)" style="rounded=1;whiteSpace=wrap;html=1;labelBackgroundColor=none;fontFamily=Helvetica;fontSize=16;fillColor=#dae8fc;strokeColor=#6c8ebf;" parent="1" vertex="1">
          <mxGeometry x="610" y="190" width="120" height="40" as="geometry" />
        </mxCell>
        <mxCell id="zMVrUrAunQJpq_xIm7K5-67" style="edgeStyle=orthogonalEdgeStyle;rounded=1;hachureGap=4;orthogonalLoop=1;jettySize=auto;html=1;exitX=0.5;exitY=0;exitDx=0;exitDy=0;entryX=0.5;entryY=1;entryDx=0;entryDy=0;fontFamily=Helvetica;fontSize=16;labelBackgroundColor=none;fontColor=default;" parent="1" source="zMVrUrAunQJpq_xIm7K5-68" target="zMVrUrAunQJpq_xIm7K5-66" edge="1">
          <mxGeometry relative="1" as="geometry" />
        </mxCell>
        <mxCell id="zMVrUrAunQJpq_xIm7K5-68" value="MaxPooling(3,3)" style="rounded=1;whiteSpace=wrap;html=1;labelBackgroundColor=none;fontFamily=Helvetica;fontSize=16;fillColor=#dae8fc;strokeColor=#6c8ebf;" parent="1" vertex="1">
          <mxGeometry x="610" y="250" width="120" height="40" as="geometry" />
        </mxCell>
        <mxCell id="zMVrUrAunQJpq_xIm7K5-69" style="edgeStyle=orthogonalEdgeStyle;rounded=1;orthogonalLoop=1;jettySize=auto;html=1;entryX=0.5;entryY=1;entryDx=0;entryDy=0;exitX=0.5;exitY=0;exitDx=0;exitDy=0;labelBackgroundColor=none;fontColor=default;fontFamily=Helvetica;fontSize=16;" parent="1" source="zMVrUrAunQJpq_xIm7K5-72" target="zMVrUrAunQJpq_xIm7K5-57" edge="1">
          <mxGeometry relative="1" as="geometry">
            <mxPoint x="400" y="300" as="sourcePoint" />
          </mxGeometry>
        </mxCell>
        <mxCell id="zMVrUrAunQJpq_xIm7K5-70" style="edgeStyle=orthogonalEdgeStyle;rounded=1;orthogonalLoop=1;jettySize=auto;html=1;exitX=0.5;exitY=0;exitDx=0;exitDy=0;entryX=0.5;entryY=1;entryDx=0;entryDy=0;labelBackgroundColor=none;fontColor=default;fontFamily=Helvetica;fontSize=16;" parent="1" source="zMVrUrAunQJpq_xIm7K5-72" target="zMVrUrAunQJpq_xIm7K5-59" edge="1">
          <mxGeometry relative="1" as="geometry" />
        </mxCell>
        <mxCell id="zMVrUrAunQJpq_xIm7K5-71" style="edgeStyle=orthogonalEdgeStyle;rounded=1;orthogonalLoop=1;jettySize=auto;html=1;exitX=0.5;exitY=0;exitDx=0;exitDy=0;entryX=0.5;entryY=1;entryDx=0;entryDy=0;labelBackgroundColor=none;fontColor=default;fontFamily=Helvetica;fontSize=16;" parent="1" source="zMVrUrAunQJpq_xIm7K5-72" target="zMVrUrAunQJpq_xIm7K5-68" edge="1">
          <mxGeometry relative="1" as="geometry">
            <Array as="points">
              <mxPoint x="414" y="350" />
              <mxPoint x="670" y="350" />
            </Array>
          </mxGeometry>
        </mxCell>
        <mxCell id="zMVrUrAunQJpq_xIm7K5-72" value="Inputs" style="rounded=1;whiteSpace=wrap;html=1;labelBackgroundColor=none;fontFamily=Helvetica;fontSize=16;fillColor=#d5e8d4;strokeColor=#82b366;" parent="1" vertex="1">
          <mxGeometry x="354" y="380" width="120" height="40" as="geometry" />
        </mxCell>
        <mxCell id="zMVrUrAunQJpq_xIm7K5-73" style="edgeStyle=orthogonalEdgeStyle;rounded=1;orthogonalLoop=1;jettySize=auto;html=1;exitX=0.5;exitY=0;exitDx=0;exitDy=0;labelBackgroundColor=none;fontColor=default;fontFamily=Helvetica;fontSize=16;" parent="1" source="zMVrUrAunQJpq_xIm7K5-72" edge="1">
          <mxGeometry relative="1" as="geometry">
            <mxPoint x="500" y="320" as="targetPoint" />
          </mxGeometry>
        </mxCell>
        <mxCell id="zMVrUrAunQJpq_xIm7K5-74" value="" style="endArrow=classic;html=1;rounded=1;edgeStyle=orthogonalEdgeStyle;exitX=0.5;exitY=0;exitDx=0;exitDy=0;entryX=0.5;entryY=1;entryDx=0;entryDy=0;labelBackgroundColor=none;fontColor=default;fontFamily=Helvetica;fontSize=16;" parent="1" source="zMVrUrAunQJpq_xIm7K5-66" target="zMVrUrAunQJpq_xIm7K5-55" edge="1">
          <mxGeometry width="50" height="50" relative="1" as="geometry">
            <mxPoint x="650" y="140" as="sourcePoint" />
            <mxPoint x="700" y="90" as="targetPoint" />
            <Array as="points">
              <mxPoint x="670" y="140" />
              <mxPoint x="414" y="140" />
            </Array>
          </mxGeometry>
        </mxCell>
        <mxCell id="zMVrUrAunQJpq_xIm7K5-75" value="relu" style="text;html=1;align=center;verticalAlign=middle;resizable=0;points=[];autosize=1;strokeColor=none;fillColor=none;labelBackgroundColor=none;rounded=1;fontFamily=Helvetica;fontSize=16;" parent="1" vertex="1">
          <mxGeometry x="135" y="165" width="50" height="30" as="geometry" />
        </mxCell>
        <mxCell id="zMVrUrAunQJpq_xIm7K5-76" value="relu" style="text;html=1;align=center;verticalAlign=middle;resizable=0;points=[];autosize=1;strokeColor=none;fillColor=none;labelBackgroundColor=none;rounded=1;fontFamily=Helvetica;fontSize=16;" parent="1" vertex="1">
          <mxGeometry x="285" y="165" width="50" height="30" as="geometry" />
        </mxCell>
        <mxCell id="zMVrUrAunQJpq_xIm7K5-77" value="relu" style="text;html=1;align=center;verticalAlign=middle;resizable=0;points=[];autosize=1;strokeColor=none;fillColor=none;labelBackgroundColor=none;rounded=1;fontFamily=Helvetica;fontSize=16;" parent="1" vertex="1">
          <mxGeometry x="669" y="150" width="50" height="30" as="geometry" />
        </mxCell>
        <mxCell id="zMVrUrAunQJpq_xIm7K5-78" value="relu" style="text;html=1;align=center;verticalAlign=middle;resizable=0;points=[];autosize=1;strokeColor=none;fillColor=none;labelBackgroundColor=none;rounded=1;fontFamily=Helvetica;fontSize=16;" parent="1" vertex="1">
          <mxGeometry x="495" y="135" width="50" height="30" as="geometry" />
        </mxCell>
        <mxCell id="zMVrUrAunQJpq_xIm7K5-79" value="relu" style="text;html=1;align=center;verticalAlign=middle;resizable=0;points=[];autosize=1;strokeColor=none;fillColor=none;labelBackgroundColor=none;rounded=1;fontFamily=Helvetica;fontSize=16;" parent="1" vertex="1">
          <mxGeometry x="495" y="195" width="50" height="30" as="geometry" />
        </mxCell>
        <mxCell id="zMVrUrAunQJpq_xIm7K5-80" value="relu" style="text;html=1;align=center;verticalAlign=middle;resizable=0;points=[];autosize=1;strokeColor=none;fillColor=none;labelBackgroundColor=none;rounded=1;fontFamily=Helvetica;fontSize=16;" parent="1" vertex="1">
          <mxGeometry x="495" y="255" width="50" height="30" as="geometry" />
        </mxCell>
        <mxCell id="zMVrUrAunQJpq_xIm7K5-83" style="edgeStyle=none;curved=1;rounded=0;orthogonalLoop=1;jettySize=auto;html=1;exitX=0.5;exitY=1;exitDx=0;exitDy=0;entryX=0.5;entryY=0;entryDx=0;entryDy=0;fontSize=15;startSize=8;endSize=8;fontStyle=1" parent="1" source="zMVrUrAunQJpq_xIm7K5-82" target="A2y09itvP1W3iUXNutHY-101" edge="1">
          <mxGeometry relative="1" as="geometry" />
        </mxCell>
        <mxCell id="zMVrUrAunQJpq_xIm7K5-82" value="&lt;span style=&quot;font-size: 15px;&quot;&gt;Input&lt;/span&gt;" style="rounded=1;whiteSpace=wrap;html=1;fillColor=#d5e8d4;strokeColor=#82b366;fontSize=15;fontStyle=1" parent="1" vertex="1">
          <mxGeometry x="522" y="4714" width="180" height="50" as="geometry" />
        </mxCell>
        <mxCell id="zMVrUrAunQJpq_xIm7K5-84" value="ReLU" style="text;html=1;align=center;verticalAlign=middle;resizable=0;points=[];autosize=1;strokeColor=none;fillColor=none;fontSize=15;fontStyle=1" parent="1" vertex="1">
          <mxGeometry x="626" y="5040" width="60" height="30" as="geometry" />
        </mxCell>
        <mxCell id="zMVrUrAunQJpq_xIm7K5-85" value="Softmax" style="text;html=1;align=center;verticalAlign=middle;resizable=0;points=[];autosize=1;strokeColor=none;fillColor=none;fontSize=15;fontStyle=1" parent="1" vertex="1">
          <mxGeometry x="626" y="5860" width="80" height="30" as="geometry" />
        </mxCell>
        <mxCell id="z_P95bshOumGHO0UAb_S-2" value="Total Parameters: 239,082&lt;div style=&quot;font-size: 15px;&quot;&gt;Trainable Parameters: 238,314&lt;/div&gt;&lt;div style=&quot;font-size: 15px;&quot;&gt;Non-Trainable Parameters: 768&lt;/div&gt;" style="text;html=1;align=center;verticalAlign=middle;resizable=0;points=[];autosize=1;strokeColor=none;fillColor=none;fontSize=15;fontStyle=1" parent="1" vertex="1">
          <mxGeometry x="492" y="5939" width="230" height="70" as="geometry" />
        </mxCell>
      </root>
    </mxGraphModel>
  </diagram>
</mxfile>
